<?xml version="1.0" encoding="UTF-8"?>
<svg width="16px" height="16px" viewBox="0 0 16 16" version="1.1" xmlns="http://www.w3.org/2000/svg" xmlns:xlink="http://www.w3.org/1999/xlink">
    <!-- Generator: Sketch 55.2 (78181) - https://sketchapp.com -->
    <title>Group 3</title>
    <desc>Created with Sketch.</desc>
    <g id="Default-UI" stroke="none" stroke-width="1" fill="none" fill-rule="evenodd">
        <g id="Execution" transform="translate(-1674.000000, -393.000000)" fill="#E53E6E" fill-rule="nonzero">
            <g id="Group-3" transform="translate(1674.000033, 393.163300)">
                <path d="M2.80832231,4.99225508 L1.73539787,3.92766841 C1.5360912,3.72766841 1.21317564,3.73321508 1.01317564,3.93252939 C0.813868978,4.13183606 0.813175644,4.45821828 1.01178667,4.65752495 L2.23470222,5.80753383 C2.33053511,5.90406183 2.46039111,5.8811445 2.59651556,5.8811445 L3.59166222,5.8811445 C2.88332444,6.77003339 2.41804444,7.83670006 2.24583111,8.90336672 L0.510417778,8.90336672 C0.22848,8.90336672 7.20312698e-13,9.15476228 7.20312698e-13,9.43670006 C7.20312698e-13,9.71863783 0.22848,9.97003339 0.510417778,9.97003339 L2.17013333,9.97003339 C2.17916107,10.8589223 2.40416,11.7478112 2.79651556,12.4589223 L2.42638222,12.4589223 C2.29096533,12.4589223 2.16040889,12.5367001 2.06456889,12.6325329 L0.841653333,13.8707196 C0.642346667,14.0700263 0.64304,14.3998929 0.842347733,14.5985063 C0.942347733,14.6978112 1.0722144,14.7505898 1.20275662,14.7505898 C1.33329884,14.7505898 1.46456996,14.7012849 1.56385884,14.6012849 L2.63816996,13.5255872 L3.46247218,13.5255872 C4.46732551,14.7700316 6.04433884,15.5776761 7.64433884,15.6686983 L7.64433884,4.99225383 L2.80832231,4.99225508 Z" id="Path"></path>
                <path d="M15.4895668,8.90336619 L13.7187401,8.90336619 C13.4985979,7.83669952 12.9305445,6.77003286 12.2652645,5.88114397 L13.4041445,5.88114397 C13.5395614,5.88114397 13.6701179,5.90544975 13.7659579,5.80961686 L14.9888734,4.62211463 C15.1874868,4.42211463 15.1874868,4.11864797 14.9874846,3.9193413 C14.7874825,3.72003463 14.4645691,3.71795463 14.2652624,3.91795232 L13.1916446,4.99226343 L8.35555573,4.99226343 L8.35555573,15.6644412 C9.95555573,15.5602741 11.5048891,14.5922279 12.508978,13.5255968 L13.3617602,13.5255968 L14.435378,14.6026812 C14.535378,14.7026812 14.665938,14.7533763 14.7964802,14.7533763 C14.9270224,14.7533763 15.0576002,14.7040714 15.1568891,14.6047648 C15.3561957,14.4054581 15.3568891,14.0825425 15.1575836,13.8825425 L13.9346681,12.6325514 C13.8395285,12.5367185 13.7096725,12.4589408 13.5742592,12.4589408 L13.1832903,12.4589408 C13.580517,11.7478297 13.8082859,10.8589408 13.817317,9.97005188 L15.4895303,9.97005188 C15.7714681,9.97005188 15.9999481,9.71865632 15.9999481,9.43671855 C15.9999481,9.15478077 15.7714681,8.90338521 15.4895303,8.90338521 L15.4895668,8.90336619 Z" id="Path"></path>
                <path d="M4.69717564,4.28114397 L11.3027223,4.28114397 C11.3027223,3.03669952 10.6853534,2.10052175 9.75827787,1.51581063 L10.4249445,0.863028412 C10.6242512,0.663721745 10.6242512,0.347063968 10.4249445,0.147757301 C10.2256379,-0.0515493658 9.90272231,-0.0480826991 9.70272231,0.151229479 L8.73813564,1.11720281 C8.49994898,1.0630357 8.25340676,1.03248103 7.99925564,1.03248103 C7.74508676,1.03248103 7.49786898,1.06442592 7.26037564,1.11859303 L6.29578898,0.154699701 C6.09648231,-0.0446069658 5.77356676,-0.0446069658 5.57356676,0.154699701 C5.37426009,0.354006368 5.37426009,0.677615256 5.57356676,0.876921923 L6.24023342,1.51651303 C5.31454453,2.10124192 4.69717564,3.03665526 4.69717564,4.28114397 L4.69717564,4.28114397 Z" id="Path"></path>
            </g>
        </g>
    </g>
</svg>