<?xml version="1.0" encoding="UTF-8"?>
<svg width="32px" height="32px" viewBox="0 0 32 32" version="1.1" xmlns="http://www.w3.org/2000/svg" xmlns:xlink="http://www.w3.org/1999/xlink">
    <!-- Generator: Sketch 55.2 (78181) - https://sketchapp.com -->
    <title>Group 37 Copy 3</title>
    <desc>Created with Sketch.</desc>
    <g id="Default-UI" stroke="none" stroke-width="1" fill="none" fill-rule="evenodd">
        <g id="Scenario-Page-Action-Widget-Run" transform="translate(-1879.000000, -509.000000)">
            <g id="Group-37-Copy-3" transform="translate(1880.000000, 510.000000)">
                <circle id="Oval-9" stroke="#FFFFFF" stroke-width="1.5" cx="15" cy="15" r="15"></circle>
                <g id="Group-5-Copy-3" transform="translate(8.000000, 8.000000)" fill="#FFFFFF" fill-rule="nonzero">
                    <g id="Group-4">
                        <path d="M2.45728202,4.36822319 L1.51847313,3.43670986 C1.3440798,3.26170986 1.06152869,3.26656319 0.886528689,3.44096322 C0.712135356,3.61535655 0.711528689,3.90094099 0.885313333,4.07533433 L1.95536444,5.0815921 C2.03921822,5.1660541 2.15284222,5.14600144 2.27195111,5.14600144 L3.14270444,5.14600144 C2.52290889,5.92377922 2.11578889,6.85711255 1.96510222,7.79044588 L0.446615556,7.79044588 C0.19992,7.79044588 7.20312698e-13,8.01041699 7.20312698e-13,8.25711255 C7.20312698e-13,8.5038081 0.19992,8.72377922 0.446615556,8.72377922 L1.89886667,8.72377922 C1.90676593,9.50155699 2.10364,10.2793348 2.44695111,10.901557 L2.12308444,10.901557 C2.00459467,10.901557 1.89035778,10.9696125 1.80649778,11.0534663 L0.736446667,12.1368797 C0.562053333,12.311273 0.56266,12.5999063 0.737054267,12.773693 C0.824554267,12.8605848 0.9381876,12.9067661 1.05241204,12.9067661 C1.16663649,12.9067661 1.28149871,12.8636243 1.36837649,12.7761243 L2.30839871,11.8348888 L3.02966316,11.8348888 C3.90890982,12.9237777 5.28879649,13.6304665 6.68879649,13.710111 L6.68879649,4.3682221 L2.45728202,4.36822319 Z" id="Path"></path>
                        <path d="M13.5533709,7.79044542 L12.0038976,7.79044542 C11.8112731,6.85711208 11.3142265,5.92377875 10.7321065,5.14600097 L11.7286265,5.14600097 C11.8471162,5.14600097 11.9613531,5.16726853 12.0452131,5.08341475 L13.1152642,4.0443503 C13.2890509,3.8693503 13.2890509,3.60381697 13.114049,3.42942364 C12.9390472,3.2550303 12.6564979,3.2532103 12.4821046,3.42820828 L11.542689,4.3682305 L7.31111127,4.3682305 L7.31111127,13.7063861 C8.71111127,13.6152398 10.0667779,12.7681994 10.9453557,11.8348972 L11.6915402,11.8348972 L12.6309557,12.7773461 C12.7184557,12.8648461 12.8326957,12.9092043 12.9469202,12.9092043 C13.0611446,12.9092043 13.1754002,12.8660625 13.2622779,12.7791692 C13.4366713,12.6047758 13.4372779,12.3222247 13.2628857,12.1472247 L12.1928346,11.0534825 C12.1095875,10.9696287 11.9959635,10.9015732 11.8774768,10.9015732 L11.535379,10.9015732 C11.8829524,10.2793509 12.0822501,9.50157317 12.0901524,8.72379539 L13.553339,8.72379539 C13.8000346,8.72379539 13.9999546,8.50382428 13.9999546,8.25712873 C13.9999546,8.01043317 13.8000346,7.79046206 13.553339,7.79046206 L13.5533709,7.79044542 Z" id="Path"></path>
                        <path d="M4.11002869,3.74600097 L9.88988202,3.74600097 C9.88988202,2.65711208 9.34968424,1.83795653 8.53849313,1.3263343 L9.12182647,0.755149861 C9.2962198,0.580756527 9.2962198,0.303680972 9.12182647,0.129287638 C8.94743313,-0.0451056951 8.66488202,-0.0420723617 8.48988202,0.132325794 L7.64586869,0.977552461 C7.43745536,0.930156238 7.22173091,0.903420905 6.99934869,0.903420905 C6.77695091,0.903420905 6.56063536,0.931372683 6.35282869,0.978768905 L5.50881536,0.135362238 C5.33442202,-0.0390310951 5.05187091,-0.0390310951 4.87687091,0.135362238 C4.70247758,0.309755572 4.70247758,0.592913349 4.87687091,0.767306683 L5.46020424,1.3269489 C4.65022647,1.83858668 4.11002869,2.65707335 4.11002869,3.74600097 L4.11002869,3.74600097 Z" id="Path"></path>
                    </g>
                </g>
            </g>
        </g>
    </g>
</svg>