<svg xmlns="http://www.w3.org/2000/svg" width="16" height="16" viewBox="0 0 16 16"><title>  Group 3</title><desc>  Created with Sketch.</desc><g fill="none"><g fill="#FFF"><g transform="translate(-1573 -176)translate(1562 164)translate(11 12)"><path d="M6 0L1.3 0C0.6 0 0 0.6 0 1.3L0 6C0 6.7 0.6 7.3 1.3 7.3L6 7.3C6.7 7.3 7.3 6.7 7.3 6L7.3 1.3C7.3 0.6 6.7 0 6 0ZM6 6L1.3 6 1.3 1.3 6 1.3 6 6Z"/><path d="M14.7 0L10 0C9.3 0 8.7 0.6 8.7 1.3L8.7 6C8.7 6.7 9.3 7.3 10 7.3L14.7 7.3C15.4 7.3 16 6.7 16 6L16 1.3C16 0.6 15.4 0 14.7 0ZM14.7 6L10 6 10 1.3 14.7 1.3 14.7 6Z"/><path d="M6 8.7L1.3 8.7C0.6 8.7 0 9.3 0 10L0 14.7C0 15.4 0.6 16 1.3 16L6 16C6.7 16 7.3 15.4 7.3 14.7L7.3 10C7.3 9.3 6.7 8.7 6 8.7ZM6 14.7L1.3 14.7 1.3 10 6 10 6 14.7Z"/><path d="M14.7 8.7L10 8.7C9.3 8.7 8.7 9.3 8.7 10L8.7 14.7C8.7 15.4 9.3 16 10 16L14.7 16C15.4 16 16 15.4 16 14.7L16 10C16 9.3 15.4 8.7 14.7 8.7ZM14.7 14.7L10 14.7 10 10 14.7 10 14.7 14.7Z"/><polygon points="2.3 2.3 3.7 2.3 3.7 3.3 2.3 3.3"/><polygon points="2.3 4 5 4 5 5 2.3 5"/><polygon points="11 2.3 13.7 2.3 13.7 3.3 11 3.3"/><polygon points="11 4 12.3 4 12.3 5 11 5"/><polygon points="2.3 11 5 11 5 12 2.3 12"/><polygon points="2.3 12.7 3.7 12.7 3.7 13.7 2.3 13.7"/><polygon points="11 11 12.3 11 12.3 12 11 12"/><polygon points="11 12.7 13.7 12.7 13.7 13.7 11 13.7"/></g></g></g></svg>
