<svg xmlns="http://www.w3.org/2000/svg" width="11" height="11" viewBox="0 0 11 11"><title>  Group 9</title><desc>  Created with Sketch.</desc><g fill="none"><g fill="#FFF"><path d="M4.6 11C4.5 11 4.3 10.9 4.2 10.8 4 10.6 4 10.2 4.2 10L8.7 5.6 4.2 1.1C4 0.9 4 0.5 4.2 0.3 4.4 0.1 4.8 0.1 5 0.3L9.9 5.1C10.1 5.4 10.1 5.7 9.9 6L5 10.8C4.9 10.9 4.8 11 4.6 11L4.6 11Z"/><path d="M0.6 11C0.5 11 0.3 10.9 0.2 10.8 0 10.6 0 10.2 0.2 10L4.7 5.6 0.2 1.1C0 0.9 0 0.5 0.2 0.3 0.4 0.1 0.8 0.1 1 0.3L5.9 5.1C6.1 5.4 6.1 5.7 5.9 6L1 10.8C0.9 10.9 0.8 11 0.6 11L0.6 11Z"/></g></g></svg>
