<?xml version="1.0" encoding="UTF-8"?>
<svg width="11px" height="11px" viewBox="0 0 11 11" version="1.1" xmlns="http://www.w3.org/2000/svg" xmlns:xlink="http://www.w3.org/1999/xlink">
    <title>Group 10</title>
    <desc>Created with Sketch.</desc>
    <g id="GT-Smart-Widget" stroke="none" stroke-width="1" fill="none" fill-rule="evenodd">
        <g id="GTSmartWidget-IndividualRecord" transform="translate(-1061.000000, -910.000000)" fill="#FFFFFF">
            <g id="Group-7" transform="translate(1061.000000, 907.000000)">
                <g id="Group-10" transform="translate(0.000000, 3.000000)">
                    <g id="np_chevron-right_1245238_FFFFFF-Copy" transform="translate(3.500000, 5.500000) scale(-1, 1) translate(-3.500000, -5.500000) ">
                        <path d="M0.613930693,11 C0.467151485,11 0.320383168,10.9438434 0.208063366,10.8319505 C-0.0161405941,10.6077465 -0.0161405941,10.2444307 0.208063366,10.0202267 L4.6734099,5.55444455 L0.208063366,1.08866238 C-0.0161405941,0.864458416 -0.0161405941,0.501142574 0.208063366,0.276938614 C0.432267327,0.0527346535 0.795583168,0.0527346535 1.01978713,0.276938614 L5.89137129,5.14852277 C6.11557525,5.37272673 6.11557525,5.73604257 5.89137129,5.96024653 L1.01978713,10.8318307 C0.907478218,10.9437149 0.76069901,10.9998802 0.613919802,10.9998802 L0.613930693,11 Z" id="Path"></path>
                    </g>
                    <g id="np_chevron-right_1245238_FFFFFF-Copy-2" transform="translate(7.500000, 5.500000) scale(-1, 1) translate(-7.500000, -5.500000) translate(4.000000, 0.000000)">
                        <path d="M0.613930693,11 C0.467151485,11 0.320383168,10.9438434 0.208063366,10.8319505 C-0.0161405941,10.6077465 -0.0161405941,10.2444307 0.208063366,10.0202267 L4.6734099,5.55444455 L0.208063366,1.08866238 C-0.0161405941,0.864458416 -0.0161405941,0.501142574 0.208063366,0.276938614 C0.432267327,0.0527346535 0.795583168,0.0527346535 1.01978713,0.276938614 L5.89137129,5.14852277 C6.11557525,5.37272673 6.11557525,5.73604257 5.89137129,5.96024653 L1.01978713,10.8318307 C0.907478218,10.9437149 0.76069901,10.9998802 0.613919802,10.9998802 L0.613930693,11 Z" id="Path"></path>
                    </g>
                </g>
            </g>
        </g>
    </g>
</svg>
