<svg xmlns="http://www.w3.org/2000/svg" width="30" height="30" viewBox="0 0 30 30"><title>  np_action_320248_FFFFFF</title><desc>  Created with Sketch.</desc><g fill="none"><g fill="#FFF"><path d="M11.3 18L8.4 25.3 7.2 24.3 6.7 23.8 5.4 22.5 4.2 21.5 11.3 18 11.3 18ZM14.8 14.3L1 21 4.1 23.9 0 28.3 1.9 30 6 25.6 9.1 28.5 14.8 14.3Z"/><path d="M17.8 0C11 0 5.5 5.4 5.5 12.1 5.5 12.8 5.6 13.5 5.7 14.2L7.6 14.2C7.4 13.5 7.4 12.8 7.4 12.1 7.4 6.4 12 1.8 17.8 1.8 23.5 1.8 28.2 6.4 28.2 12.1 28.2 17.8 23.5 22.4 17.8 22.4 16.9 22.4 16.1 22.3 15.4 22.1L15.4 23.9C16.1 24.1 16.9 24.2 17.8 24.2 24.5 24.2 30 18.8 30 12.1 30 5.4 24.5 0 17.8 0L17.8 0Z"/><path d="M18 4.5C13.9 4.5 10.6 7.7 10.6 11.6 10.6 12.1 10.7 12.5 10.7 12.9L11.9 12.9C11.8 12.5 11.7 12.1 11.7 11.6 11.7 8.3 14.5 5.6 18 5.6 21.5 5.6 24.3 8.3 24.3 11.6 24.3 15 21.5 17.7 18 17.7 17.5 17.7 17 17.7 16.6 17.6L16.6 18.7C17 18.8 17.5 18.8 18 18.8 22.1 18.8 25.4 15.6 25.4 11.6 25.4 7.7 22.1 4.5 18 4.5L18 4.5Z"/></g></g></svg>
