<svg xmlns="http://www.w3.org/2000/svg" width="11" height="11" viewBox="0 0 11 11"><g fill="none"><g fill="#FFF"><path d="M9.5 5L2.4 5C2.1 5 2 4.8 2 4.6L2 3.4C2 3.2 2.2 3 2.4 3L9.6 3C9.8 3 10 3.2 10 3.4L10 4.6C9.9 4.8 9.8 5 9.5 5L9.5 5Z"/><path d="M8.6 2L3.4 2C3.2 2 3 1.8 3 1.6L3 0.4C3 0.2 3.2 0 3.4 0L8.6 0C8.8 0 9 0.2 9 0.5L9 1.6C9 1.8 8.8 2 8.6 2L8.6 2Z"/><path d="M11 6.5C11 6.3 10.7 6 10.4 6L0.6 6C0.3 6 0 6.2 0 6.5L0 10.5C0 10.8 0.3 11 0.6 11L10.4 11C10.7 11 11 10.8 11 10.5L11 6.5ZM8.3 8.9C8.3 9.1 8.2 9.1 8 9.1L3 9.1C2.9 9.1 2.7 9.1 2.7 8.9L2.7 7.4C2.7 7.3 2.8 7.2 2.9 7.2L3.3 7.2C3.4 7.2 3.4 7.3 3.4 7.4L3.4 8.3C3.4 8.4 3.6 8.5 3.7 8.5L7.4 8.5C7.5 8.5 7.6 8.4 7.6 8.3L7.6 7.4C7.6 7.3 7.7 7.3 7.8 7.3L8.2 7.3C8.3 7.3 8.3 7.3 8.3 7.4L8.3 8.9 8.3 8.9Z"/></g></g></svg>
