<svg width="42px" height="42px" viewBox="0 0 42 42" version="1.1" xmlns="http://www.w3.org/2000/svg" xmlns:xlink="http://www.w3.org/1999/xlink">
    <g id="Page-1" stroke="none" stroke-width="1" fill="none" fill-rule="evenodd">
        <g id="Scenario-Page-Action-Widget" transform="translate(-1827.000000, -184.000000)" stroke="#FFFFFF">
            <g id="Group-28" transform="translate(1828.000000, 185.000000)">
                <circle id="Oval-9" stroke-width="1.5" cx="20" cy="20" r="20"></circle>
                <g id="np_upload_1859299_FFFFFF" transform="translate(20.000000, 19.450980) rotate(180.000000) translate(-20.000000, -19.450980) translate(10.666667, 10.666667)" fill="#FFFFFF" fill-rule="nonzero" stroke-width="0.5">
                    <path d="M16.028902,10.9279608 C15.9216729,11.0351898 15.7758369,11.0952416 15.6246314,11.0952416 C15.4723635,11.0952416 15.3276118,11.0351925 15.2203608,10.9279608 L9.90502745,5.61262745 L9.90502745,16.814 C9.90502745,17.1303176 9.64981843,17.3855294 9.33349804,17.3855294 C9.01717765,17.3855294 8.76196863,17.1303204 8.76196863,16.814 L8.76196863,5.61262745 L3.44663529,10.9279608 C3.22359608,11.1467122 2.86437255,11.1456388 2.64240392,10.9236716 C2.42043804,10.7017057 2.41936471,10.3424794 2.63811471,10.1183696 L8.92933039,3.82715392 L8.92933039,3.82822616 C9.03655941,3.72099714 9.18239549,3.65987478 9.33360098,3.65987478 C9.48480647,3.65987478 9.63062059,3.72099714 9.73787157,3.82822616 L16.0290873,10.1194418 L16.0290873,10.1183696 C16.1363163,10.2255986 16.196368,10.3714347 16.196368,10.5226402 C16.196368,10.674908 16.136319,10.8207304 16.0290873,10.9279814 L16.028902,10.9279608 Z M18.4834039,0.801019608 C18.4834039,0.648751765 18.4233549,0.502929412 18.3161231,0.395678431 C18.2088914,0.288427451 18.063058,0.228397647 17.9118525,0.228397647 L0.754989804,0.228397647 C0.438672157,0.228397647 0.183460392,0.484677255 0.183460392,0.800997647 C0.183460392,1.11624471 0.438669412,1.37252706 0.754989804,1.37252706 L17.9118525,1.37252706 C18.0630471,1.37252706 18.2088722,1.31247804 18.3161231,1.20524627 C18.4233741,1.09801451 18.4834039,0.952181176 18.4834039,0.800975686 L18.4834039,0.801019608 Z" id="Shape"></path>
                </g>
            </g>
        </g>
    </g>
</svg>
