<svg xmlns="http://www.w3.org/2000/svg" width="24" height="24" viewBox="0 0 24 24"><title>  Group Copy</title><desc>  Created with Sketch.</desc><g fill="none"><g fill="#2F3460"><circle cx="12" cy="12" r="12"/></g><path d="M16.1 12.8C16.1 12.2 15.6 11.7 15 11.7L9.4 11.7 9.4 8.2C9.4 7.1 10.4 6.1 11.5 6.2 12.6 6.2 13.4 7.2 13.4 8.3L13.4 9C13.4 9.3 13.6 9.4 13.8 9.4L14.2 9.4C14.5 9.4 14.6 9.3 14.6 9L14.6 8.3C14.6 6.5 13.2 5 11.4 5 9.6 5 8.2 6.5 8.2 8.2L8.2 11.7 8.1 11.7C7.5 11.7 7 12.2 7 12.8L7 16.6C7 17.2 7.5 17.7 8.1 17.7L15 17.7C15.6 17.7 16.1 17.2 16.1 16.6L16.1 12.8Z" fill="#FFF"/></g></svg>
