<svg xmlns="http://www.w3.org/2000/svg" id="prefix__icon-llama-ai-green-circle" width="47" height="47" viewBox="0 0 47 47">
    <circle id="prefix__Ellipse_2" cx="23.5" cy="23.5" r="23.5" data-name="Ellipse 2" style="fill:#00ab4e"/>
    <g id="prefix__Group_1245" data-name="Group 1245">
        <path id="prefix__Path_1832" d="M30 12.5a1.468 1.468 0 0 1 .428-1.056 1.5 1.5 0 1 1 .005 2.113A1.458 1.458 0 0 1 30 12.5" data-name="Path 1832" style="fill:#fff"/>
        <path id="prefix__Path_1833" d="M30.925 17.128l-.072 13.32a13.751 13.751 0 0 0-5.175-5.081L25.69 23c.022-3.952-1.713-5.975-5.8-6a20.816 20.816 0 0 0-4.583.52v1.08a15.8 15.8 0 0 1 4.393-.589c3.72.022 4.946 1.68 4.928 4.99l-.01 1.872a13.081 13.081 0 0 0-5.28-.911c-3.607.02-5.323 1.651-5.337 4.375-.016 2.8 1.59 4.648 4.924 4.668 3.155.019 4.87-1.308 5.61-3.242L24.5 32.78l1.133.005.033-6.264a15.34 15.34 0 0 1 5.169 6.264v.05l1.075.008.09-15.71h-1.075zm-6.318 9.415c-.02 3.725-2.36 5.514-5.573 5.495-2.738-.016-3.956-1.419-3.943-3.7.012-2.2 1.27-3.405 4.321-3.429a10.631 10.631 0 0 1 5.2 1.01v.626z" data-name="Path 1833" style="stroke:#fff;stroke-width:.75px;fill:#fff"/>
    </g>
</svg>
