<svg xmlns="http://www.w3.org/2000/svg" id="prefix__LLamaAi" width="78.085" height="18.84" viewBox="0 0 78.085 18.84">
    <path id="prefix__Path_1" d="M19.66 13.761v-.717h-2.4c-1.185 0-1.7.511-1.7 1.439 0 .953.524 1.456 1.7 1.456 1.671 0 2.4-.507 2.4-2.177zm-7.5.829c0-2.358 1.555-3.772 4.422-3.772h3.074V10.3c0-1.363-.611-1.91-2.494-1.91a17.547 17.547 0 0 0-4 .518V5.884a26.844 26.844 0 0 1 4.662-.433c3.768 0 5.3 1.783 5.3 4.858v8.024h-3.465v-1.306c-.5 1-1.57 1.563-3.37 1.563-2.7 0-4.128-1.522-4.128-4zm31.74-4.452v8.2h-3.5v-7.35c0-1.668-.526-2.6-1.962-2.6-1.552 0-2.123.928-2.123 2.6v7.35h-3.49v-7.35c0-1.668-.505-2.6-1.96-2.6-1.569 0-2.124.928-2.124 2.6v7.35h-3.495V5.639h3.5v1.367a3.839 3.839 0 0 1 3.369-1.625 3.688 3.688 0 0 1 3.447 1.831 4.7 4.7 0 0 1 3.95-1.831c2.944 0 4.393 1.976 4.393 4.756zm9.068 3.624v-.718h-2.407c-1.184 0-1.7.511-1.7 1.439 0 .953.524 1.456 1.7 1.456 1.675 0 2.406-.507 2.406-2.177zm-7.5.828c0-2.358 1.556-3.772 4.422-3.772h3.074V10.3c0-1.363-.611-1.91-2.495-1.91a17.541 17.541 0 0 0-4 .518V5.886a26.953 26.953 0 0 1 4.663-.434c3.768 0 5.3 1.783 5.3 4.857v8.024h-3.466v-1.306c-.5 1-1.569 1.563-3.37 1.563-2.7 0-4.126-1.522-4.126-4zM6.81 0h3.405v18.1H6.81zM0 0h3.405v18.1H0zm58.376 16.144h1.946V18.1h-1.946z" data-name="Path 1" style="fill:#fff"/>
    <path id="prefix__Path_2" d="M132.821 2.854a.96.96 0 0 1 .278-.689.974.974 0 0 1 1.668.709 1 1 0 0 1-.972.956.978.978 0 0 1-.693-.287.954.954 0 0 1-.279-.69m.557 4.013l-.061 10.589a11.275 11.275 0 0 0-4.336-4.04l.017-1.881c.018-3.141-1.435-4.749-4.862-4.769a18.374 18.374 0 0 0-3.84.413v.856a13.879 13.879 0 0 1 3.681-.469c3.117.018 4.144 1.335 4.128 3.967l-.008 1.487a11.508 11.508 0 0 0-4.423-.724c-3.022.016-4.46 1.313-4.472 3.477-.013 2.225 1.332 3.7 4.126 3.711 2.643.015 4.08-1.04 4.7-2.577l-.025 2.4h.949l.028-4.979a12.4 12.4 0 0 1 4.331 4.979v.041l.9.005.072-12.488h-.9zm-5.293 7.485c-.017 2.961-1.977 4.383-4.67 4.368-2.293-.013-3.314-1.128-3.3-2.943.01-1.746 1.064-2.707 3.62-2.726a9.337 9.337 0 0 1 4.356.8z" data-name="Path 2" transform="translate(-56.932 -.895)" style="stroke:#fff;stroke-width:.5px;fill:#fff"/>
</svg>
