<?xml version="1.0" encoding="UTF-8"?>
<svg width="26px" height="26px" viewBox="0 0 26 26" version="1.1" xmlns="http://www.w3.org/2000/svg" xmlns:xlink="http://www.w3.org/1999/xlink">
    <g id="Page-1" stroke="none" stroke-width="1" fill="none" fill-rule="evenodd">
        <g id="Outputs-Outdated-Data-1" transform="translate(-801.000000, -133.000000)">
            <g id="Group-20" transform="translate(790.000000, 122.000000)">
                <g id="Group-25" transform="translate(12.000000, 12.000000)">
                    <path d="M16.3450779,13.1511996 C16.3450779,12.5897091 15.8908527,12.1354839 15.3303099,12.1364317 L10.2099336,12.1388048 L10.2089843,8.95644612 C10.2075603,7.89563964 11.0960739,7.03896293 12.1677794,7.09108892 C13.1702024,7.14092575 13.9390911,8.00475186 13.9405492,9.00857211 L13.9405492,12.4909529 C13.9405492,12.6912431 14.1047764,12.8554704 14.3050666,12.8554704 L14.6648332,12.8554704 C14.8665571,12.8554704 15.0307722,12.6912431 15.0293506,12.4895313 L15.0293506,9.02044323 C15.0279267,7.36735668 13.6748038,5.97234848 12.0220818,6.00041632 C10.4158965,6.02841976 9.11918649,7.34414907 9.11918649,8.95640967 L9.12061042,12.1387683 L9.01476792,12.1387683 C8.45469904,12.1401923 8,12.5944151 8,13.154484 L8.00237313,16.7109591 C8.00237313,17.271028 8.4565983,17.725727 9.01714105,17.725727 L15.3330131,17.7219299 C15.8930819,17.7219299 16.347781,17.2677048 16.347781,16.707162 L16.3450779,13.1511996 Z" id="Shape-Copy" fill="#2F3460" fill-rule="nonzero"></path>
                    <circle id="Oval-Copy" stroke="#2F3460" stroke-width="1.5" cx="12" cy="12" r="12"></circle>
                </g>
            </g>
        </g>
    </g>
</svg>
