<?xml version="1.0" encoding="UTF-8"?>
<svg width="10px" height="13px" viewBox="0 0 10 13" version="1.1" xmlns="http://www.w3.org/2000/svg" xmlns:xlink="http://www.w3.org/1999/xlink">
    <!-- Generator: Sketch 50.2 (55047) - http://www.bohemiancoding.com/sketch -->
    <title>Shape</title>
    <desc>Created with Sketch.</desc>
    <defs></defs>
    <g id="Scenario-Management" stroke="none" stroke-width="1" fill="none" fill-rule="evenodd">
        <g id="Scenario-Management-2" transform="translate(-1440.000000, -383.000000)" fill="#000000" fill-rule="nonzero">
            <g id="Group-16" transform="translate(1440.000000, 383.000000)">
                <path d="M9.85643956,8.03542857 C9.85643956,7.42605275 9.36347692,6.93309011 8.75512967,6.93411868 L3.19807473,6.9366942 L3.19704444,3.48293596 C3.19549908,2.33166123 4.1597873,1.40192497 5.32289059,1.4584964 C6.41080268,1.51258343 7.24526422,2.45007881 7.24684664,3.53950738 L7.24684664,4.31887442 C7.24684664,4.53624585 7.4250796,4.71447881 7.64245103,4.71447881 L8.03289938,4.71447881 C8.25182686,4.71447881 8.43004664,4.53624585 8.42850378,4.31733156 L8.42850378,3.5523909 C8.42695842,1.75832497 6.95843785,0.244346945 5.16476752,0.274808484 C3.42160268,0.305200132 2.01430598,1.73313815 2.01430598,3.4828964 L2.01585134,6.93665464 L1.90098233,6.93665464 C1.29314936,6.9382 0.79967244,7.43116013 0.79967244,8.0389931 L0.802247956,11.8987733 C0.802247956,12.5066063 1.29521059,13.0000832 1.90355785,13.0000832 L8.75806334,12.9959623 C9.36589631,12.9959623 9.85937323,12.5029997 9.85937323,11.8946524 L9.85643956,8.03542857 Z" id="Shape"></path>
            </g>
        </g>
    </g>
</svg>
