<?xml version="1.0" encoding="UTF-8"?>
<svg width="32px" height="32px" viewBox="0 0 32 32" version="1.1" xmlns="http://www.w3.org/2000/svg" xmlns:xlink="http://www.w3.org/1999/xlink">
    <title>Group 32</title>
    <desc>Created with Sketch.</desc>
    <defs></defs>
    <g id="Macros-Widget" stroke="none" stroke-width="1" fill="none" fill-rule="evenodd">
        <g id="Scenario-Page-Action-Widget-Run" transform="translate(-1869.000000, -299.000000)">
            <g id="Group-32" transform="translate(1870.000000, 300.000000)">
                <g id="Group-35" stroke="#FFFFFF" stroke-width="1.5">
                    <g id="Group-28">
                        <circle id="Oval-9" cx="15" cy="15" r="15"></circle>
                    </g>
                </g>
                <g id="np_log-file_273761_FFFFFF" transform="translate(7.000000, 7.000000)" fill="#FFFFFF" fill-rule="nonzero">
                    <path d="M15.5555556,6.22222222 L14.2222222,6.22222222 L14.2222222,3.11111111 C14.2222222,2.993056 14.1750009,2.87985778 14.0923609,2.79653333 L11.4256942,0.129866667 C11.3423609,0.0472284444 11.2291609,5.33333333e-06 11.1111164,5.33333333e-06 L2.22222756,5.33333333e-06 C1.97639644,5.33333333e-06 1.77778311,0.198618667 1.77778311,0.444449778 L1.77778311,6.22222756 L0.444449778,6.22222756 C0.198618667,6.22222756 5.33333334e-06,6.42084089 5.33333334e-06,6.666672 L5.33333334e-06,12.8888942 C5.33333334e-06,13.1347253 0.198618667,13.3333387 0.444449778,13.3333387 L1.77778311,13.3333387 L1.77778311,15.5555609 C1.77778311,15.801392 1.97639644,16.0000053 2.22222756,16.0000053 L13.7777831,16.0000053 C14.0236142,16.0000053 14.2222276,15.801392 14.2222276,15.5555609 L14.2222276,13.3333387 L15.5555609,13.3333387 C15.801392,13.3333387 16.0000053,13.1347253 16.0000053,12.8888942 L16.0000053,6.666672 C16.0000053,6.42084089 15.801392,6.22222756 15.5555609,6.22222756 L15.5555556,6.22222222 Z M11.5555556,1.51733333 L12.7048533,2.66663111 L11.5555556,2.66663111 L11.5555556,1.51733333 Z M2.66666667,0.888853333 L10.6666667,0.888853333 L10.6666667,3.55552 L13.3333333,3.55552 L13.3333333,6.22218667 L2.66666667,6.22218667 L2.66666667,0.888853333 Z M13.3333333,15.1110756 L2.66666667,15.1110756 L2.66666667,13.3332978 L13.3333333,13.3332978 L13.3333333,15.1110756 Z M15.1111111,12.4444089 L0.888888889,12.4444089 L0.888888889,7.11107556 L15.1111111,7.11107556 L15.1111111,12.4444089 Z" id="Shape" stroke="#FFFFFF" stroke-width="0.5"></path>
                    <polygon id="Shape" points="5.77777778 10.6666667 4.88888889 10.6666667 4.88888889 8 4 8 4 11.5555556 5.77777778 11.5555556"></polygon>
                    <path d="M7.55555556,11.5555556 C8.29096889,11.5555556 8.88888889,10.9576356 8.88888889,10.2222222 L8.88888889,9.33333333 C8.88888889,8.59792 8.29096889,8 7.55555556,8 C6.82014222,8 6.22222222,8.59792 6.22222222,9.33333333 L6.22222222,10.2222222 C6.22222222,10.9576356 6.82014222,11.5555556 7.55555556,11.5555556 Z M7.11111111,9.33333333 C7.11111111,9.08819556 7.31041778,8.88888889 7.55555556,8.88888889 C7.80069333,8.88888889 8,9.08819556 8,9.33333333 L8,10.2222222 C8,10.46736 7.80069333,10.6666667 7.55555556,10.6666667 C7.31041778,10.6666667 7.11111111,10.46736 7.11111111,10.2222222 L7.11111111,9.33333333 Z" id="Shape"></path>
                    <path d="M10.6666667,11.5555556 L11.5555556,11.5555556 C11.8013867,11.5555556 12,11.3569422 12,11.1111111 L12,9.77777778 C12,9.53194667 11.8013867,9.33333333 11.5555556,9.33333333 L10.6666667,9.33333333 L10.6666667,10.2222222 L11.1111111,10.2222222 L11.1111111,10.6666667 L10.6666667,10.6666667 C10.4215289,10.6666667 10.2222222,10.46736 10.2222222,10.2222222 L10.2222222,9.33333333 C10.2222222,9.08819556 10.4215289,8.88888889 10.6666667,8.88888889 L11.5555556,8.88888889 L11.5555556,8 L10.6666667,8 C9.93125333,8 9.33333333,8.59792 9.33333333,9.33333333 L9.33333333,10.2222222 C9.33333333,10.9576356 9.93125333,11.5555556 10.6666667,11.5555556 Z" id="Shape"></path>
                </g>
            </g>
        </g>
    </g>
</svg>
