<?xml version="1.0" encoding="UTF-8"?>
<svg width="26px" height="26px" viewBox="0 0 26 26" version="1.1" xmlns="http://www.w3.org/2000/svg" xmlns:xlink="http://www.w3.org/1999/xlink">
    <g id="Page-1" stroke="none" stroke-width="1" fill="none" fill-rule="evenodd">
        <g id="Outputs-Outdated-Data-1" transform="translate(-801.000000, -43.000000)">
            <g id="Group-23" transform="translate(802.000000, 44.000000)">
                <g id="Group-24">
                    <circle id="Oval" stroke="#2F3460" stroke-width="1.5" cx="12" cy="12" r="12"></circle>
                    <g id="np_database-information_935626_000000" transform="translate(7.000000, 6.000000)" fill="#2F3460" fill-rule="nonzero">
                        <path d="M4.26330725,12.1299662 C2.71771263,12.0498138 1.34416102,11.5727022 0.593339569,10.8546382 C0.376118569,10.6469117 0.155582978,10.3628161 0.0602611923,10.1674131 L2.91392544e-05,10.0441055 L0.00334907164,8.60037688 C0.00619476266,7.36341553 0.00951469505,7.17048938 0.0246911472,7.25244353 C0.0787578197,7.54222128 0.291230336,7.8984001 0.56346382,8.1559304 C0.747004699,8.32998888 1.14776658,8.59368699 1.47785362,8.75872444 C2.03844431,9.03854628 2.72477089,9.24295815 3.46927884,9.35203609 C3.90703543,9.41606231 4.08582904,9.42697132 4.69434166,9.42791956 C5.01447279,9.4283938 5.31942723,9.42412539 5.37254566,9.41843413 L5.46882297,9.40847445 L5.4934845,9.58964777 C5.61015564,10.4528253 6.0735135,11.2414793 6.78071106,11.7803126 L6.88931913,11.8628362 L6.80157841,11.8879725 C6.6630941,11.9273372 6.21252838,12.0174479 6.00196084,12.0482748 C5.42382589,12.1326948 4.8418907,12.1602035 4.26380432,12.1303236 L4.26330725,12.1299662 Z M8.52892986,11.7073863 C7.43098703,11.5916646 6.53556203,10.8408942 6.24720482,9.79415143 C6.10634081,9.28241755 6.11914994,8.76071563 6.28419832,8.26604036 C6.56165259,7.4360694 7.23368878,6.79766476 8.07225582,6.56770748 C8.58542237,6.42732912 9.10616513,6.4396526 9.60036688,6.60470098 C10.4317705,6.88215525 11.0667999,7.55135036 11.2986998,8.39275848 C11.4395638,8.90449235 11.4267546,9.42619428 11.2617063,9.92086954 C10.94869,10.8575509 10.1386308,11.5395551 9.16307288,11.6865869 C8.99043494,11.7126714 8.67741864,11.7231057 8.52896628,11.7074555 L8.52892986,11.7073863 Z M9.10137051,9.66848839 L9.10137051,8.54588647 L8.44402535,8.54588647 L8.44402535,10.7900947 L9.10137051,10.7900947 L9.10137051,9.66848839 Z M9.10137051,7.71166604 L9.10137051,7.39674355 L8.44402535,7.39674355 L8.44402535,8.02657639 L9.10137051,8.02657639 L9.10137051,7.71166604 Z M4.26328297,8.54591076 C2.87892555,8.46765607 1.65616959,8.09155693 0.866495797,7.50155988 C0.68959624,7.36924338 0.429212719,7.11408064 0.326302585,6.97274312 C0.221488687,6.828091 0.135646872,6.68580645 0.062604474,6.53593355 L0,6.40693164 L0.000948604145,4.98930692 C0.00189720829,3.58260941 0.00237144966,3.5726535 0.0270330934,3.68265418 C0.0777803191,3.90746353 0.202038599,4.1521847 0.373256001,4.36560546 C0.472852759,4.4898601 0.634574407,4.64684783 0.725161064,4.70755461 C0.758833901,4.73031965 0.838511549,4.78580929 0.902534134,4.83133573 C1.6371833,5.3544582 2.64506155,5.68787198 3.88615096,5.81876793 C4.21055585,5.8529155 5.23117038,5.8529155 5.55558741,5.81876793 C6.50460436,5.71869645 7.29896472,5.50622515 7.96443244,5.1737584 C8.29404597,5.00918232 8.68201086,4.75259904 8.88120195,4.56763762 C9.14347952,4.32386348 9.3459852,3.98808213 9.41522735,3.68264204 C9.4403636,3.57213628 9.4403636,3.57498221 9.44131184,4.73267507 C9.44226045,5.83203844 9.44131184,5.89321873 9.4185468,5.8861039 C9.22219679,5.8272936 8.59805824,5.81022042 8.29974513,5.85575051 C8.09580677,5.88657862 7.81836464,5.95677023 7.64097943,6.02174712 C7.44842967,6.09241346 7.11975102,6.25793292 6.95186035,6.36891706 C6.45292346,6.69948976 6.07255906,7.1310664 5.80933447,7.66367126 C5.68744739,7.91028649 5.62532007,8.07675662 5.56176008,8.32480452 C5.53567559,8.42724721 5.51148758,8.51356618 5.50864164,8.51640726 C5.4816077,8.5434412 4.58997808,8.56430855 4.26269569,8.54581241 L4.26328297,8.54591076 Z M4.18170762,4.96518204 C3.26635865,4.89451571 2.5635077,4.7465405 1.9027751,4.48569561 C1.10172486,4.16935258 0.527402293,3.74487863 0.219133264,3.24217793 C0.15558055,3.138787 0.0977197038,3.0107394 0.0455482971,2.85944596 C-0.00093002787,2.72427625 -0.0142102431,2.39324218 0.0204120477,2.2229718 C0.225770943,1.20138596 1.59308189,0.350046221 3.46977129,0.075408748 C3.91890433,0.00948482731 4.0830069,0 4.72178792,0 C5.36110316,0 5.52473222,0.00995967575 5.97380455,0.075408748 C6.71840963,0.184491547 7.40466336,0.38889856 7.96522976,0.668720392 C8.78951857,1.0799117 9.30357144,1.62816677 9.42316379,2.22293537 C9.45731136,2.39319361 9.44403236,2.72423982 9.39802754,2.85940954 C9.29226541,3.16769071 9.16420931,3.37541717 8.93086459,3.61682375 C8.2626165,4.30973094 7.05466085,4.78542927 5.57013725,4.94047438 C5.36905211,4.96134295 4.36501053,4.97936436 4.18104471,4.96513591 L4.18170762,4.96518204 Z" id="Shape"></path>
                    </g>
                </g>
            </g>
        </g>
    </g>
</svg>
