<?xml version="1.0" encoding="UTF-8"?>
<svg width="19px" height="20px" viewBox="0 0 19 20" version="1.1" xmlns="http://www.w3.org/2000/svg" xmlns:xlink="http://www.w3.org/1999/xlink">
    <!-- Generator: Sketch 60.1 (88133) - https://sketch.com -->
    <title>power-bi-vector-logo</title>
    <desc>Created with Sketch.</desc>
    <g id="Visualization-&amp;-Settings" stroke="none" stroke-width="1" fill="none" fill-rule="evenodd">
        <g id="PowerBI---Add-new-report" transform="translate(-843.000000, -301.000000)" fill="#343434" fill-rule="nonzero">
            <g id="2nd-level-navigation" transform="translate(660.000000, 280.000000)">
                <g id="powerbi" transform="translate(152.000000, 21.000000)">
                    <g id="power-bi-vector-logo" transform="translate(31.000000, 0.000000)">
                        <path d="M17.7241379,11.2413793 C17.7241379,9.65517241 17.7241379,8.0862069 17.7241379,6.5 C17.7241379,5.94827586 17.4827586,5.62068966 16.9655172,5.46551724 C12.2931034,4.05172414 7.63793103,2.62068966 2.96551724,1.22413793 C2.24137931,1 1.67241379,1.43103448 1.67241379,2.18965517 C1.67241379,4.27586207 1.67241379,6.34482759 1.67241379,8.43103448 C1.67241379,8.60344828 1.68965517,8.82758621 1.60344828,8.96551724 C1.5,9.12068966 1.29310345,9.27586207 1.12068966,9.27586207 C0.965517241,9.27586207 0.75862069,9.10344828 0.637931034,8.96551724 C0.551724138,8.86206897 0.551724138,8.68965517 0.551724138,8.53448276 C0.551724138,6.46551724 0.534482759,4.4137931 0.551724138,2.34482759 C0.568965517,0.689655172 1.81034483,-0.206896552 3.39655172,0.25862069 C4.06896552,0.448275862 4.74137931,0.672413793 5.4137931,0.879310345 C9.27586207,2.05172414 13.137931,3.22413793 17,4.39655172 C18.2758621,4.77586207 18.7931034,5.39655172 18.7931034,6.74137931 C18.8103448,9.79310345 18.8103448,12.8275862 18.7931034,15.8793103 C18.7931034,17.2931034 17.8793103,18.2931034 16.637931,18.137931 C15.9310345,18.0517241 15.2413793,17.7586207 14.5689655,17.5344828 C14.2931034,17.4482759 14.2241379,17.1724138 14.3103448,16.8965517 C14.4137931,16.6034483 14.6551724,16.5172414 14.9310345,16.5862069 C15.362069,16.7068966 15.7931034,16.8275862 16.2241379,16.9827586 C17.137931,17.2931034 17.7068966,16.8965517 17.7068966,15.9482759 L17.7068966,11.2413793 L17.7241379,11.2413793 Z" id="Path"></path>
                        <path d="M10.5172414,13.3103448 C10.5172414,11.5689655 10.5172414,9.84482759 10.5172414,8.10344828 C10.5172414,7.51724138 10.8275862,7.05172414 11.3275862,6.87931034 C11.8275862,6.68965517 12.4137931,6.81034483 12.7068966,7.24137931 C12.8793103,7.5 13.0172414,7.84482759 13.0172414,8.15517241 C13.0517241,11.5862069 13.0344828,15.0344828 13.0344828,18.4482759 C13.0344828,19 12.8448276,19.4655172 12.3103448,19.7068966 C11.8448276,19.9137931 11.3965517,19.8793103 11,19.5689655 C10.637931,19.2931034 10.5172414,18.8965517 10.5172414,18.4482759 L10.5172414,13.3103448 Z" id="Path"></path>
                        <path d="M9.53448276,13.3965517 C9.53448276,14.6896552 9.53448276,15.9827586 9.53448276,17.2758621 C9.53448276,17.8275862 9.27586207,18.2586207 8.74137931,18.4827586 C8.25862069,18.6724138 7.75862069,18.637931 7.4137931,18.2241379 C7.20689655,17.9655172 7.03448276,17.5862069 7.03448276,17.2586207 C7,14.6551724 7.01724138,12.0517241 7.03448276,9.44827586 C7.03448276,8.63793103 7.56896552,8.10344828 8.31034483,8.12068966 C9.01724138,8.13793103 9.53448276,8.68965517 9.53448276,9.46551724 C9.53448276,10.7758621 9.53448276,12.1034483 9.53448276,13.3965517" id="Path"></path>
                        <path d="M6.01724138,13.3448276 C6.01724138,14.1896552 6.01724138,15.0344828 6.01724138,15.862069 C6.01724138,16.6206897 5.46551724,17.1896552 4.77586207,17.1896552 C4.0862069,17.2068966 3.53448276,16.6206897 3.53448276,15.862069 C3.53448276,14.1724138 3.53448276,12.4655172 3.53448276,10.7758621 C3.53448276,10.0172414 4.03448276,9.5 4.74137931,9.48275862 C5.46551724,9.46551724 6.01724138,10.0172414 6.01724138,10.7586207 C6.03448276,11.6206897 6.01724138,12.4827586 6.01724138,13.3448276" id="Path"></path>
                        <path d="M2.5,13.3793103 L2.5,14.7413793 C2.5,15.4655172 2.01724138,15.9827586 1.32758621,16.0344828 C0.706896552,16.0689655 0.0517241379,15.5344828 0.0344827586,14.8448276 C-1.22471477e-15,13.8448276 -1.22471477e-15,12.862069 0.0344827586,11.862069 C0.0517241379,11.1896552 0.706896552,10.6551724 1.34482759,10.6896552 C2.03448276,10.7241379 2.5,11.2586207 2.51724138,11.9827586 L2.51724138,13.3793103 L2.5,13.3793103 Z" id="Path"></path>
                    </g>
                </g>
            </g>
        </g>
    </g>
</svg>