<?xml version="1.0" encoding="UTF-8"?>
<svg width="21px" height="20px" viewBox="0 0 21 20" version="1.1" xmlns="http://www.w3.org/2000/svg" xmlns:xlink="http://www.w3.org/1999/xlink">
    <!-- Generator: Sketch 60.1 (88133) - https://sketch.com -->
    <title>tableau-software (3)</title>
    <desc>Created with Sketch.</desc>
    <g id="Visualization-&amp;-Settings" stroke="none" stroke-width="1" fill="none" fill-rule="evenodd" opacity="0.900000036">
        <g id="PowerBI---Add-new-report" transform="translate(-712.000000, -301.000000)">
            <g id="2nd-level-navigation" transform="translate(660.000000, 280.000000)">
                <g id="tableau" transform="translate(22.000000, 21.000000)">
                    <g id="tableau-software-(3)" transform="translate(30.000000, 0.000000)">
                        <polygon id="Path" fill="#E8762D" fill-rule="nonzero" points="9.57918151 13.5116876 10.6883499 13.5116876 10.6883499 10.4866829 13.4780764 10.4866829 13.4780764 9.4111257 10.6883499 9.4111257 10.6883499 6.38612101 9.57918151 6.38612101 9.57918151 9.4111257 6.82306613 9.4111257 6.82306613 10.4866829 9.57918151 10.4866829"></polygon>
                        <polygon id="Path" fill="#C72037" fill-rule="nonzero" points="4.43667354 17.8811388 5.37778611 17.8811388 5.37778611 15.1922458 7.86501219 15.1922458 7.86501219 14.3519667 5.37778611 14.3519667 5.37778611 11.6294625 4.43667354 11.6294625 4.43667354 14.3519667 1.94944747 14.3519667 1.94944747 15.1922458 4.43667354 15.1922458"></polygon>
                        <polygon id="Path" fill="#5B879B" fill-rule="nonzero" points="14.8897453 8.16751266 15.8308579 8.16751266 15.8308579 5.4786196 18.3516951 5.4786196 18.3516951 4.67195169 15.8308579 4.67195169 15.8308579 1.94944747 14.8897453 1.94944747 14.8897453 4.67195169 12.4025192 4.67195169 12.4025192 5.4786196 14.8897453 5.4786196"></polygon>
                        <polygon id="Path" fill="#5C6692" fill-rule="nonzero" points="9.74723733 19.9986421 10.5539052 19.9986421 10.5539052 18.0828058 12.2680746 18.0828058 12.2680746 17.3769714 10.5539052 17.3769714 10.5539052 15.4611351 9.74723733 15.4611351 9.74723733 17.3769714 8.06667917 17.3769714 8.06667917 18.0828058 9.74723733 18.0828058"></polygon>
                        <polygon id="Path" fill="#EB9129" fill-rule="nonzero" points="4.47028471 8.16751266 5.34417495 8.16751266 5.34417495 5.44500844 7.86501219 5.44500844 7.86501219 4.67195169 5.34417495 4.67195169 5.34417495 1.94944747 4.47028471 1.94944747 4.47028471 4.67195169 1.94944747 4.67195169 1.94944747 5.44500844 4.47028471 5.44500844"></polygon>
                        <polygon id="Path" fill="#5C6692" fill-rule="nonzero" points="17.7466942 12.2008522 18.5533621 12.2008522 18.5533621 10.3186271 20.2675314 10.3186271 20.2675314 9.57918151 18.5533621 9.57918151 18.5533621 7.69695637 17.7466942 7.69695637 17.7466942 9.57918151 16.066136 9.57918151 16.066136 10.3186271 17.7466942 10.3186271"></polygon>
                        <polygon id="Path" fill="#1F457E" points="14.8897453 17.8811388 15.8308579 17.8811388 15.8308579 15.1922458 18.3516951 15.1922458 18.3516951 14.3519667 15.8308579 14.3519667 15.8308579 11.6294625 14.8897453 11.6294625 14.8897453 14.3519667 12.4025192 14.3519667 12.4025192 15.1922458 14.8897453 15.1922458"></polygon>
                        <path d="M12.1336299,2.42000375 L12.1336299,1.84861398 L10.4530718,1.84861398 L10.4530718,0 L9.84807082,0 L9.84807082,1.84861398 L8.16751266,1.84861398 L8.16751266,2.42000375 L9.84807082,2.42000375 L9.84807082,4.26861773 L10.4530718,4.26861773 L10.4530718,2.42000375 L12.1336299,2.42000375 Z M1.68055816,12.0664076 L2.2855591,12.0664076 L2.2855591,10.2177936 L3.96611726,10.2177936 L3.96611726,9.64640384 L2.2855591,9.64640384 L2.2855591,7.83140103 L1.68055816,7.83140103 L1.68055816,9.64640384 L0,9.64640384 L0,10.2514048 L1.68055816,10.2177936 L1.68055816,12.0664076 Z" id="Shape" fill="#7199A6" fill-rule="nonzero"></path>
                    </g>
                </g>
            </g>
        </g>
    </g>
</svg>