<svg xmlns="http://www.w3.org/2000/svg" width="11" height="14" viewBox="0 0 11 14"><title>  Shape</title><desc>  Created with Sketch.</desc><g fill="none"><g fill="#2F3460"><path d="M10.6 8.3C10.6 7.7 10.1 7.2 9.5 7.2L3.5 7.2 3.5 3.6C3.5 2.4 4.5 1.5 5.7 1.5 6.9 1.6 7.8 2.5 7.8 3.7L7.8 8.5C7.8 8.7 8 8.9 8.3 8.9L8.7 8.9C8.9 8.9 9.1 8.7 9.1 8.5L9.1 3.7C9.1 1.8 7.5 0.3 5.6 0.3 3.7 0.3 2.2 1.8 2.2 3.6L2.2 7.2 2.1 7.2C1.4 7.2 0.9 7.7 0.9 8.3L0.9 12.4C0.9 13 1.4 13.5 2.1 13.5L9.5 13.5C10.1 13.5 10.6 13 10.6 12.4L10.6 8.3Z"/></g></g></svg>
