<svg xmlns="http://www.w3.org/2000/svg" width="19.766" height="19.754" viewBox="0 0 19.766 19.754">
  <g id="np_grid_143229_FFFFFF" transform="translate(-0.213 -0.123)">
    <path id="Path" d="M4.344,2.172A2.172,2.172,0,1,1,2.172,0,2.172,2.172,0,0,1,4.344,2.172" transform="translate(0.213 15.533)" fill="#fff"/>
    <path id="Path-2" data-name="Path" d="M4.344,2.172A2.172,2.172,0,1,1,2.172,0,2.172,2.172,0,0,1,4.344,2.172" transform="translate(7.904 15.533)" fill="#fff"/>
    <path id="Path-3" data-name="Path" d="M4.344,2.172A2.172,2.172,0,1,1,2.172,0,2.172,2.172,0,0,1,4.344,2.172" transform="translate(15.635 15.533)" fill="#fff"/>
    <path id="Path-4" data-name="Path" d="M4.344,2.172A2.172,2.172,0,1,1,2.172,0,2.172,2.172,0,0,1,4.344,2.172" transform="translate(0.213 7.828)" fill="#fff"/>
    <path id="Path-5" data-name="Path" d="M4.344,2.172A2.172,2.172,0,1,1,2.172,0,2.172,2.172,0,0,1,4.344,2.172" transform="translate(7.904 7.828)" fill="#fff"/>
    <path id="Path-6" data-name="Path" d="M4.344,2.172A2.172,2.172,0,1,1,2.172,0,2.172,2.172,0,0,1,4.344,2.172" transform="translate(15.635 7.828)" fill="#fff"/>
    <path id="Path-7" data-name="Path" d="M4.344,2.172A2.172,2.172,0,1,1,2.172,0,2.172,2.172,0,0,1,4.344,2.172" transform="translate(0.213 0.123)" fill="#fff"/>
    <path id="Path-8" data-name="Path" d="M4.344,2.172A2.172,2.172,0,1,1,2.172,0,2.172,2.172,0,0,1,4.344,2.172" transform="translate(7.904 0.123)" fill="#fff"/>
    <path id="Path-9" data-name="Path" d="M4.344,2.172A2.172,2.172,0,1,1,2.172,0,2.172,2.172,0,0,1,4.344,2.172" transform="translate(15.635 0.123)" fill="#fff"/>
  </g>
</svg>
