<svg width="22" height="22" xmlns="http://www.w3.org/2000/svg"><g id="Page-1" stroke="none" stroke-width="1" fill="none" fill-rule="evenodd"><g id="Home-Page" transform="translate(-19 -201)" fill="#FFF" fill-rule="nonzero" stroke="#FFF" stroke-width=".5"><g id="noun_1187811_ffffff" transform="translate(20 202)"><path d="M12.4 20H7.6l-.178-2.7a6.864 6.864 0 0 1-.766-.316L4.628 18.77l-3.4-3.4 1.784-2.03a9.18 9.18 0 0 1-.316-.762L0 12.4V7.6l2.696-.176a8.21 8.21 0 0 1 .316-.762L1.23 4.628l3.4-3.4 2.028 1.786c.25-.118.504-.222.766-.316L7.6 0h4.8l.178 2.7c.26.091.517.197.766.316l2.028-1.786 3.4 3.4-1.784 2.03c.117.25.223.505.316.762L20 7.6v4.8l-2.696.172c-.09.261-.195.517-.316.766l1.782 2.032-3.4 3.4-2.026-1.782c-.25.118-.504.222-.766.316L12.4 20zm-3.772-1.114h2.732l.156-2.422.372-.11c.44-.132.865-.307 1.27-.524l.34-.184 1.82 1.6 1.934-1.93-1.6-1.82.184-.34c.219-.404.394-.83.524-1.27l.11-.372 2.422-.156V8.632l-2.422-.156-.11-.37a6.534 6.534 0 0 0-.524-1.27l-.184-.34 1.6-1.82-1.934-1.934-1.82 1.6-.34-.184a6.834 6.834 0 0 0-1.27-.524l-.372-.11-.156-2.418H8.628l-.156 2.422-.372.11a6.68 6.68 0 0 0-1.27.524l-.34.184-1.82-1.6L2.736 4.68l1.6 1.82-.184.34a6.73 6.73 0 0 0-.528 1.274l-.11.368-2.418.156v2.726l2.42.156.11.372c.133.44.31.866.528 1.27l.184.34-1.6 1.82 1.934 1.934 1.82-1.6.34.184c.404.219.83.394 1.27.524l.372.11.154 2.412zM10 13.93A3.932 3.932 0 1 1 13.93 10 3.94 3.94 0 0 1 10 13.93zm0-6.758a2.824 2.824 0 1 0-.008 5.648A2.824 2.824 0 0 0 10 7.172z" id="Shape"/></g></g></g></svg>