<?xml version="1.0" encoding="UTF-8"?>
<svg width="361px" height="303px" viewBox="0 0 361 303" version="1.1" xmlns="http://www.w3.org/2000/svg" xmlns:xlink="http://www.w3.org/1999/xlink">
    <title>Group 6</title>
    <g id="Status-screens" stroke="none" stroke-width="1" fill="none" fill-rule="evenodd">
        <g id="Product-page---App-deactivated" transform="translate(-1208.000000, -391.000000)" fill-rule="nonzero">
            <g id="Group-5" transform="translate(1208.000000, 391.000000)">
                <g id="feature">
                    <g id="Group" transform="translate(4.806452, 4.806452)">
                        <path d="M288.387097,12.016129 L288.387097,28.8387097 L-5.41834782e-07,28.8387097 L-5.41834782e-07,12.016129 C-5.41834782e-07,8.82896031 1.26471762,5.77205505 3.51838634,3.51838634 C5.77205505,1.26471762 8.82896031,-0.000956581142 12.016129,-5.41834784e-07 L276.370968,-5.41834784e-07 C279.558136,-0.000956581142 282.615042,1.26471762 284.86871,3.51838634 C287.122379,5.77205505 288.387097,8.82896031 288.387097,12.016129 Z" id="Path" fill="#D7A6F0"></path>
                        <rect id="Rectangle" fill="#FFFFFF" x="124.967742" y="57.6774194" width="38.4516129" height="38.4516129" rx="12"></rect>
                        <rect id="Rectangle" fill="#FFFFFF" x="124.967742" y="115.354839" width="38.4516129" height="38.4516129" rx="12"></rect>
                        <rect id="Rectangle" fill="#4500D3" x="124.967742" y="173.032258" width="38.4516129" height="38.4516129" rx="12"></rect>
                        <rect id="Rectangle" fill="#D7A6F0" x="182.645161" y="57.6774194" width="38.4516129" height="38.4516129" rx="12"></rect>
                        <rect id="Rectangle" fill="#D7A6F0" x="182.645161" y="115.354839" width="38.4516129" height="38.4516129" rx="12"></rect>
                        <rect id="Rectangle" fill="#4500D3" x="182.645161" y="173.032258" width="38.4516129" height="38.4516129" rx="12"></rect>
                        <rect id="Rectangle" fill="#D7A6F0" x="67.2903226" y="57.6774194" width="38.4516129" height="38.4516129" rx="12"></rect>
                        <rect id="Rectangle" fill="#D7A6F0" x="67.2903226" y="115.354839" width="38.4516129" height="38.4516129" rx="12"></rect>
                        <rect id="Rectangle" fill="#FFFFFF" x="67.2903226" y="173.032258" width="38.4516129" height="38.4516129" rx="12"></rect>
                    </g>
                    <g id="Group" fill="#4500D3">
                        <path d="M281.177419,0 L16.8225806,0 C7.53598094,0.0102645555 0.0102645555,7.53598094 0,16.8225806 L0,233.112903 C0.0102645555,242.399503 7.53598094,249.925219 16.8225806,249.935484 L281.177419,249.935484 C290.464019,249.925219 297.989735,242.399503 298,233.112903 L298,16.8225806 C297.989735,7.53598094 290.464019,0.0102645555 281.177419,0 L281.177419,0 Z M288.387097,233.112903 C288.383784,237.093325 285.157841,240.319268 281.177419,240.322581 L16.8225806,240.322581 C12.8421588,240.319268 9.6162161,237.093325 9.61290323,233.112903 L9.61290323,38.4516129 L288.387097,38.4516129 L288.387097,233.112903 Z M288.387097,28.8387097 L9.61290323,28.8387097 L9.61290323,16.8225806 C9.6162161,12.8421588 12.8421588,9.6162161 16.8225806,9.61290323 L281.177419,9.61290323 C285.157841,9.6162161 288.383784,12.8421588 288.387097,16.8225806 L288.387097,28.8387097 Z" id="Shape"></path>
                        <path d="M19.2258065,24.0322581 L24.0322581,24.0322581 C26.686788,24.0322581 28.8387097,21.8803364 28.8387097,19.2258065 C28.8387097,16.5712765 26.686788,14.4193548 24.0322581,14.4193548 L19.2258065,14.4193548 C16.5712765,14.4193548 14.4193548,16.5712765 14.4193548,19.2258065 C14.4193548,21.8803364 16.5712765,24.0322581 19.2258065,24.0322581 Z" id="Path"></path>
                        <path d="M38.4516129,24.0322581 L43.2580645,24.0322581 C45.9125944,24.0322581 48.0645161,21.8803364 48.0645161,19.2258065 C48.0645161,16.5712765 45.9125944,14.4193548 43.2580645,14.4193548 L38.4516129,14.4193548 C35.797083,14.4193548 33.6451613,16.5712765 33.6451613,19.2258065 C33.6451613,21.8803364 35.797083,24.0322581 38.4516129,24.0322581 Z" id="Path"></path>
                        <path d="M57.6774194,24.0322581 L62.483871,24.0322581 C65.1384009,24.0322581 67.2903226,21.8803364 67.2903226,19.2258065 C67.2903226,16.5712765 65.1384009,14.4193548 62.483871,14.4193548 L57.6774194,14.4193548 C55.0228894,14.4193548 52.8709677,16.5712765 52.8709677,19.2258065 C52.8709677,21.8803364 55.0228894,24.0322581 57.6774194,24.0322581 Z" id="Path"></path>
                        <path d="M161.016129,57.6774194 L136.983871,57.6774194 C130.350703,57.6850344 124.975357,63.0603804 124.967742,69.6935484 L124.967742,93.7258065 C124.975357,100.358974 130.350703,105.73432 136.983871,105.741935 L161.016129,105.741935 C167.649297,105.73432 173.024643,100.358974 173.032258,93.7258065 L173.032258,69.6935484 C173.024643,63.0603804 167.649297,57.6850344 161.016129,57.6774194 L161.016129,57.6774194 Z M163.419355,93.7258065 C163.419355,95.0530714 162.343394,96.1290323 161.016129,96.1290323 L136.983871,96.1290323 C135.656606,96.1290323 134.580645,95.0530714 134.580645,93.7258065 L134.580645,69.6935484 C134.580645,68.3662834 135.656606,67.2903226 136.983871,67.2903226 L161.016129,67.2903226 C162.343394,67.2903226 163.419355,68.3662834 163.419355,69.6935484 L163.419355,93.7258065 Z" id="Shape"></path>
                        <path d="M161.016129,115.354839 L136.983871,115.354839 C130.350703,115.362454 124.975357,120.7378 124.967742,127.370968 L124.967742,151.403226 C124.975357,158.036394 130.350703,163.41174 136.983871,163.419355 L161.016129,163.419355 C167.649297,163.41174 173.024643,158.036394 173.032258,151.403226 L173.032258,127.370968 C173.024643,120.7378 167.649297,115.362454 161.016129,115.354839 L161.016129,115.354839 Z M163.419355,151.403226 C163.419355,152.730491 162.343394,153.806452 161.016129,153.806452 L136.983871,153.806452 C135.656606,153.806452 134.580645,152.730491 134.580645,151.403226 L134.580645,127.370968 C134.580645,126.043703 135.656606,124.967742 136.983871,124.967742 L161.016129,124.967742 C162.343394,124.967742 163.419355,126.043703 163.419355,127.370968 L163.419355,151.403226 Z" id="Shape"></path>
                        <path d="M161.016129,173.032258 L136.983871,173.032258 C130.350703,173.039873 124.975357,178.415219 124.967742,185.048387 L124.967742,209.080645 C124.975357,215.713813 130.350703,221.089159 136.983871,221.096774 L161.016129,221.096774 C167.649297,221.089159 173.024643,215.713813 173.032258,209.080645 L173.032258,185.048387 C173.024643,178.415219 167.649297,173.039873 161.016129,173.032258 L161.016129,173.032258 Z M163.419355,209.080645 C163.419355,210.40791 162.343394,211.483871 161.016129,211.483871 L136.983871,211.483871 C135.656606,211.483871 134.580645,210.40791 134.580645,209.080645 L134.580645,185.048387 C134.580645,183.721122 135.656606,182.645161 136.983871,182.645161 L161.016129,182.645161 C162.343394,182.645161 163.419355,183.721122 163.419355,185.048387 L163.419355,209.080645 Z" id="Shape"></path>
                        <path d="M218.693548,57.6774194 L194.66129,57.6774194 C188.028122,57.6850344 182.652776,63.0603804 182.645161,69.6935484 L182.645161,93.7258065 C182.652776,100.358974 188.028122,105.73432 194.66129,105.741935 L218.693548,105.741935 C225.326716,105.73432 230.702062,100.358974 230.709677,93.7258065 L230.709677,69.6935484 C230.702062,63.0603804 225.326716,57.6850344 218.693548,57.6774194 L218.693548,57.6774194 Z M221.096774,93.7258065 C221.096774,95.0530714 220.020813,96.1290323 218.693548,96.1290323 L194.66129,96.1290323 C193.334025,96.1290323 192.258065,95.0530714 192.258065,93.7258065 L192.258065,69.6935484 C192.258065,68.3662834 193.334025,67.2903226 194.66129,67.2903226 L218.693548,67.2903226 C220.020813,67.2903226 221.096774,68.3662834 221.096774,69.6935484 L221.096774,93.7258065 Z" id="Shape"></path>
                        <path d="M218.693548,115.354839 L194.66129,115.354839 C188.028122,115.362454 182.652776,120.7378 182.645161,127.370968 L182.645161,151.403226 C182.652776,158.036394 188.028122,163.41174 194.66129,163.419355 L218.693548,163.419355 C225.326716,163.41174 230.702062,158.036394 230.709677,151.403226 L230.709677,127.370968 C230.702062,120.7378 225.326716,115.362454 218.693548,115.354839 L218.693548,115.354839 Z M221.096774,151.403226 C221.096774,152.730491 220.020813,153.806452 218.693548,153.806452 L194.66129,153.806452 C193.334025,153.806452 192.258065,152.730491 192.258065,151.403226 L192.258065,127.370968 C192.258065,126.043703 193.334025,124.967742 194.66129,124.967742 L218.693548,124.967742 C220.020813,124.967742 221.096774,126.043703 221.096774,127.370968 L221.096774,151.403226 Z" id="Shape"></path>
                        <path d="M218.693548,173.032258 L194.66129,173.032258 C188.028122,173.039873 182.652776,178.415219 182.645161,185.048387 L182.645161,209.080645 C182.652776,215.713813 188.028122,221.089159 194.66129,221.096774 L218.693548,221.096774 C225.326716,221.089159 230.702062,215.713813 230.709677,209.080645 L230.709677,185.048387 C230.702062,178.415219 225.326716,173.039873 218.693548,173.032258 L218.693548,173.032258 Z M221.096774,209.080645 C221.096774,210.40791 220.020813,211.483871 218.693548,211.483871 L194.66129,211.483871 C193.334025,211.483871 192.258065,210.40791 192.258065,209.080645 L192.258065,185.048387 C192.258065,183.721122 193.334025,182.645161 194.66129,182.645161 L218.693548,182.645161 C220.020813,182.645161 221.096774,183.721122 221.096774,185.048387 L221.096774,209.080645 Z" id="Shape"></path>
                        <path d="M103.33871,57.6774194 L79.3064516,57.6774194 C72.6732836,57.6850344 67.2979376,63.0603804 67.2903226,69.6935484 L67.2903226,93.7258065 C67.2979376,100.358974 72.6732836,105.73432 79.3064516,105.741935 L103.33871,105.741935 C109.971878,105.73432 115.347224,100.358974 115.354839,93.7258065 L115.354839,69.6935484 C115.347224,63.0603804 109.971878,57.6850344 103.33871,57.6774194 L103.33871,57.6774194 Z M105.741935,93.7258065 C105.741935,95.0530714 104.665975,96.1290323 103.33871,96.1290323 L79.3064516,96.1290323 C77.9791866,96.1290323 76.9032258,95.0530714 76.9032258,93.7258065 L76.9032258,69.6935484 C76.9032258,68.3662834 77.9791866,67.2903226 79.3064516,67.2903226 L103.33871,67.2903226 C104.665975,67.2903226 105.741935,68.3662834 105.741935,69.6935484 L105.741935,93.7258065 Z" id="Shape"></path>
                        <path d="M103.33871,115.354839 L79.3064516,115.354839 C72.6732836,115.362454 67.2979376,120.7378 67.2903226,127.370968 L67.2903226,151.403226 C67.2979376,158.036394 72.6732836,163.41174 79.3064516,163.419355 L103.33871,163.419355 C109.971878,163.41174 115.347224,158.036394 115.354839,151.403226 L115.354839,127.370968 C115.347224,120.7378 109.971878,115.362454 103.33871,115.354839 L103.33871,115.354839 Z M105.741935,151.403226 C105.741935,152.730491 104.665975,153.806452 103.33871,153.806452 L79.3064516,153.806452 C77.9791866,153.806452 76.9032258,152.730491 76.9032258,151.403226 L76.9032258,127.370968 C76.9032258,126.043703 77.9791866,124.967742 79.3064516,124.967742 L103.33871,124.967742 C104.665975,124.967742 105.741935,126.043703 105.741935,127.370968 L105.741935,151.403226 Z" id="Shape"></path>
                        <path d="M103.33871,173.032258 L79.3064516,173.032258 C72.6732836,173.039873 67.2979376,178.415219 67.2903226,185.048387 L67.2903226,209.080645 C67.2979376,215.713813 72.6732836,221.089159 79.3064516,221.096774 L103.33871,221.096774 C109.971878,221.089159 115.347224,215.713813 115.354839,209.080645 L115.354839,185.048387 C115.347224,178.415219 109.971878,173.039873 103.33871,173.032258 L103.33871,173.032258 Z M105.741935,209.080645 C105.741935,210.40791 104.665975,211.483871 103.33871,211.483871 L79.3064516,211.483871 C77.9791866,211.483871 76.9032258,210.40791 76.9032258,209.080645 L76.9032258,185.048387 C76.9032258,183.721122 77.9791866,182.645161 79.3064516,182.645161 L103.33871,182.645161 C104.665975,182.645161 105.741935,183.721122 105.741935,185.048387 L105.741935,209.080645 Z" id="Shape"></path>
                    </g>
                </g>
                <g id="Group-3" transform="translate(240.000000, 182.000000)" stroke="#4500D3">
                    <path d="M57.6091352,0 C30.1286682,0 6.47554461,19.4086357 1.11304493,46.3617591 C-4.24945476,73.3125389 10.1739816,100.298475 35.5614801,110.81488 C60.9489786,121.331286 90.229446,112.450817 105.498976,89.6039437 C120.766163,66.7547265 117.768507,36.3047283 98.3364763,16.8726981 C87.545852,6.05394873 72.8903842,-0.0187067081 57.6091352,0 Z" id="Path" stroke-width="10" fill="#D7A6F0"></path>
                    <g id="down-arrow-(1)" transform="translate(32.000000, 27.000000)" fill="#4500D3" stroke-width="2">
                        <polygon id="Path" points="48.5757647 31.0082353 28.3516471 51.2322353 28.3516471 0 23.6483529 0 23.6483529 51.2322353 3.42423529 31.0082353 0.0985882353 34.3338824 26 60.2352941 51.9014118 34.3338824"></polygon>
                    </g>
                </g>
            </g>
        </g>
    </g>
</svg>