<svg width="33" height="33" xmlns="http://www.w3.org/2000/svg"><g id="Page-2" stroke="none" stroke-width="1" fill="none" fill-rule="evenodd"><g id="Comcast-Home-Page" transform="translate(-13 -12)" fill="#FFF"><g id="Group-23" transform="translate(13 12)"><path d="M18.015 31.029a13.15 13.15 0 0 1-7.57-2.402 13.114 13.114 0 0 1-4.714-6.141 13.06 13.06 0 0 1-.296-8.04 13.083 13.083 0 0 1 4.264-6.482 13.133 13.133 0 0 1 7.313-2.933c2.715-.205 5.46.44 7.787 1.849a13.141 13.141 0 0 1 5.14 5.778 13.051 13.051 0 0 1 .886 7.982 13.047 13.047 0 0 1-3.777 6.784 13.132 13.132 0 0 1-7.004 3.45 13.38 13.38 0 0 1-2.029.155zm0-27.942c-1.571 0-3.14.243-4.635.726a14.995 14.995 0 0 0-7.272 5.129 14.904 14.904 0 0 0-2.177 3.942 14.944 14.944 0 0 0-.343 9.2 14.845 14.845 0 0 0 1.889 4.112 15.045 15.045 0 0 0 6.862 5.633 15 15 0 0 0 4.514 1.062c1.581.12 3.181-.005 4.722-.379a14.969 14.969 0 0 0 4.21-1.734 15.08 15.08 0 0 0 3.445-2.862 14.813 14.813 0 0 0 3.676-8.167 14.995 14.995 0 0 0-.2-4.724 14.817 14.817 0 0 0-1.586-4.268 15.01 15.01 0 0 0-13.105-7.67z" id="Fill-14" fill-rule="nonzero"/><path d="M7.93 30.515a15.97 15.97 0 0 1-4.107-5.008 15.869 15.869 0 0 1-1.769-6.393c-.117-2.004.14-4.026.771-5.932a15.898 15.898 0 0 1 2.666-4.914 15.981 15.981 0 0 1 9.48-5.736 16.207 16.207 0 0 1 6.264.033 15.996 15.996 0 0 1 10.204 6.94c.179.275.339.56.516.835.098.153.251.456.433.53.235.094-.003-.624-.042-.73-.35-.954-.852-1.848-1.426-2.685a17.005 17.005 0 0 0-4.33-4.349 16.912 16.912 0 0 0-5.64-2.53 17.133 17.133 0 0 0-6.268-.327A16.906 16.906 0 0 0 4.728 5.29 16.73 16.73 0 0 0 .093 15.444a16.883 16.883 0 0 0 .649 6.352 16.798 16.798 0 0 0 2.928 5.58 16.975 16.975 0 0 0 2.162 2.257c.778.675 1.627 1.343 2.565 1.783.097.045.727.31.538.02-.105-.16-.268-.292-.41-.418a17.89 17.89 0 0 0-.595-.503" id="Fill-15"/><path d="M26.33 9.062c-.297-.246-.587-.498-.895-.73-.17-.13-.349-.269-.545-.358-.288-.132-.139.146-.048.278.32.463.749.841 1.108 1.273.469.563.885 1.17 1.24 1.812a11.668 11.668 0 0 1 1.154 8.179 11.674 11.674 0 0 1-10.264 9.005 11.79 11.79 0 0 1-8.304-2.391c-.047-.037-.626-.6-.715-.435-.044.079.09.248.128.304.152.224.343.423.534.614a11.231 11.231 0 0 0 3.697 2.423 12.262 12.262 0 0 0 8.21.356 12.204 12.204 0 0 0 5.891-4.023 12.068 12.068 0 0 0 2.61-6.784c.17-2.86-.695-5.725-2.433-8.009a12.198 12.198 0 0 0-1.367-1.514" id="Fill-16"/></g></g></g></svg>