<svg xmlns="http://www.w3.org/2000/svg" width="13" height="14" viewBox="0 0 13 14">
    <path fill="#FFF" fill-rule="nonzero" d="M12.375 3.042L9.528.264C9.458.125 9.25.055 9.042.055h-5.07c-.417 0-.695.278-.695.695v2.222H.778c-.417 0-.695.278-.695.695v9.583c0 .417.278.695.695.695h7.917c.416 0 .694-.278.694-.695v-2.222h2.5c.416 0 .694-.278.694-.695V3.528a.631.631 0 0 0-.208-.486zm-1.458.486H9.11V1.792l1.806 1.736zM8 12.555H1.472V4.361h1.805v5.903c0 .417.278.695.695.695h4.097v1.596H8zm.695-2.916H4.667V1.445h3.055v2.778c0 .416.278.694.695.694h2.778V9.64h-2.5z"/>
</svg>
