<svg xmlns="http://www.w3.org/2000/svg" width="91" height="26" viewBox="0 0 91 26">
    <g fill="none" fill-rule="evenodd">
        <g fill="#FFF" fill-rule="nonzero">
            <g>
                <g>
                    <g>
                        <g>
                            <g>
                                <path d="M9.346 13.347c-.95.546-2.012.827-3.31.827-3.74 0-5.91-2.56-5.91-6.884 0-3.075 1.189-5.12 2.773-6.182C3.802.515 5.117.125 6.257.125c.903 0 1.885.203 2.614.593.507.265.744.437 1.33.937L8.476 3.949c-.713-.655-1.49-1.045-2.139-1.045-1.584 0-2.297 1.358-2.297 4.48 0 1.748.238 2.794.682 3.372.364.468.982.749 1.584.749.823 0 1.568-.343 2.44-1.093l.205-.187 1.616 2.107c-.507.547-.745.718-1.22 1.015zM21.148 12.301c-1.03 1.155-2.377 1.858-4.468 1.858-3.675 0-6.082-2.716-6.082-6.916 0-4.199 2.44-6.993 6.082-6.993 1.933 0 3.438.655 4.61 2.014 1.093 1.248 1.568 2.716 1.568 4.87-.015 2.295-.554 3.856-1.71 5.167zm-2.883-8.773c-.349-.437-.903-.702-1.537-.702-.84 0-1.537.515-1.822 1.358-.237.702-.364 1.639-.364 2.966 0 1.545.158 2.685.444 3.372.316.733 1.108 1.092 1.805 1.092 1.537 0 2.202-1.358 2.202-4.511-.016-1.795-.253-2.966-.728-3.575zM32.822 14.237c-.443-.312-.823-.75-1.061-1.311-.871.827-2.138 1.28-3.58 1.28-1.9 0-3.548-.89-3.992-2.17-.206-.593-.285-1.312-.285-2.654V.827l3.5-.655v8.586c0 1.202.112 1.826.286 2.185.19.359.713.624 1.251.624.872 0 1.933-.624 2.202-1.28V.905l3.39-.702v10.194c0 .89.285 1.795.824 2.42l-2.535 1.42zM46.715 12.645c-.919.967-2.139 1.514-3.628 1.514-1.061 0-2.059-.266-2.835-.703.047.313.047.703.047 1.093v4.168l-3.421.89V4.168c0-1.748-.032-2.248-.206-3.372L39.824.25c.127.468.206.827.238 1.249.602-.734 1.964-1.25 3.342-1.25.95 0 1.933.313 2.677.813 1.458.967 2.519 2.685 2.519 5.76 0 2.872-.475 4.324-1.885 5.823zm-2.329-8.43c-.269-.734-.823-1.124-1.695-1.124-.871 0-1.726.359-2.36 1.015V10.6c.475.39 1.251.78 1.964.78 1.743 0 2.44-1.17 2.44-4.23 0-1.265-.111-2.28-.349-2.935zM59.372 14.549c-.824-.343-1.568-.937-1.901-1.623-.27.265-.555.515-.824.702-.665.468-1.616.734-2.725.734-3.01 0-4.657-1.515-4.657-4.168 0-3.138 2.202-4.59 6.51-4.59.27 0 .508 0 .793.031V5.09c0-1.483-.285-1.983-1.584-1.983-1.14 0-2.456.547-3.913 1.515l-1.505-2.498c.713-.437 1.252-.702 2.202-1.093 1.33-.546 2.455-.78 3.707-.78 2.281 0 3.833.827 4.372 2.326.19.546.27.968.238 2.404l-.08 4.48c-.031 1.467.08 2.092 1.268 2.966l-1.901 2.123zm-3.026-6.525c-2.455 0-3.31.437-3.31 2.03 0 1.045.665 1.748 1.568 1.748.665 0 1.33-.344 1.853-.906l.048-2.872h-.159z" transform="translate(-217 -236) translate(159 222) translate(50) translate(8) translate(0 14) translate(28.696 5.245)"/>
                            </g>
                            <path d="M23.182 11.473c2.095 1.318 3.471 2.7 3.247 3.478-.224.762-1.888.699-4.111-.016 1.487 2.033 2.24 3.86 1.663 4.527-.623.73-2.591-.223-4.751-2.081.656 2.906.608 5.352-.384 5.765-.96.397-2.368-1.286-3.551-3.827-.64 2.858-1.712 4.987-2.784 4.939-1.136-.048-1.728-2.541-1.648-5.718-1.968 2.605-4.047 4.304-4.975 3.749-.88-.525-.368-2.78.928-5.416-2.544 1.445-4.688 2.049-5.168 1.239-.496-.826.976-2.796 3.296-4.781-2.832.413-4.912.19-4.944-.699-.032-.81 1.664-1.89 4.064-2.795-2.16-.508-3.456-1.27-3.152-1.97.304-.714 2.208-1.175 4.64-1.222C3.904 5.5 3.12 4.405 3.664 3.865c.496-.476 1.984-.381 3.792.175-.768-1.318-.896-2.335-.304-2.637.623-.301 1.92.239 3.327 1.303-.112-1.477.208-2.526.864-2.62.624-.096 1.44.619 2.176 1.826.48-1.24 1.152-1.986 1.76-1.906.64.08 1.135 1.048 1.295 2.477 1.072-1.111 2.128-1.699 2.72-1.445.56.238.624 1.175.224 2.446 1.424-.651 2.608-.842 3.072-.46.512.412.08 1.445-1.024 2.62 1.935-.206 3.423 0 3.76.572.32.556-.497 1.35-2.048 2.08 1.951.46 3.343 1.144 3.455 1.81.112.731-1.344 1.256-3.551 1.367zm-1.168.016c-.736-.54-1.664-1.112-2.704-1.604-.352-.175-.704-.318-1.056-.461.352-.064.704-.159 1.056-.254 1.152-.318 2.128-.699 2.8-1.112.784-.46 1.168-.921.976-1.286-.208-.382-1.024-.556-2.16-.509-.784.032-1.712.143-2.688.382-.336.079-.672.174-.992.27.176-.239.336-.493.496-.763.496-.842.8-1.62.928-2.255.144-.715.048-1.239-.304-1.398-.384-.174-1.024.127-1.728.73-.496.43-1.008 1.017-1.487 1.732-.176.254-.32.508-.464.762-.08-.27-.16-.555-.256-.841-.32-.89-.736-1.652-1.152-2.208-.48-.635-.976-.985-1.376-.921-.432.08-.672.667-.688 1.54 0 .62.112 1.382.352 2.208.08.286.176.588.288.858-.288-.16-.592-.318-.928-.477-1.04-.492-2.08-.857-2.944-1.048-1.023-.222-1.807-.19-2.095.111-.32.35.048.985.896 1.7.592.492 1.407 1.016 2.383 1.508.336.175.672.318 1.008.461-.384.063-.784.143-1.184.254-1.376.334-2.64.762-3.6 1.239-1.183.572-1.935 1.175-1.887 1.636.048.524 1.088.746 2.592.65 1.008-.063 2.24-.27 3.535-.618.432-.112.848-.239 1.232-.366-.24.318-.496.651-.736 1.017-.832 1.239-1.488 2.51-1.888 3.573-.48 1.334-.56 2.367-.048 2.653.56.317 1.632-.382 2.784-1.636.752-.81 1.52-1.859 2.192-3.018.224-.381.416-.746.608-1.112.08.381.176.779.304 1.191.416 1.414.976 2.7 1.551 3.653.72 1.176 1.456 1.843 2.016 1.636.592-.222.768-1.397.56-2.954-.128-1-.4-2.176-.832-3.335-.144-.381-.288-.762-.432-1.112.336.19.688.397 1.072.572 1.264.635 2.48 1.064 3.456 1.27 1.168.255 1.984.191 2.143-.254.144-.46-.495-1.238-1.6-2.064z" transform="translate(-217 -236) translate(159 222) translate(50) translate(8) translate(0 14)"/>
                        </g>
                    </g>
                </g>
            </g>
        </g>
    </g>
</svg>
