<svg width="32" height="32" xmlns="http://www.w3.org/2000/svg"><g id="Page-1" stroke="none" stroke-width="1" fill="none" fill-rule="evenodd"><g id="Scenario-Page-Input-data" transform="translate(-329 -919)" stroke="#FFF"><g id="Group-30" transform="translate(330 920)"><circle id="Oval-9" stroke-width="1.5" cx="15" cy="15" r="15"/><g id="np_upload_1859299_FFFFFF" transform="rotate(180 11 10.588)" fill="#FFF" fill-rule="nonzero" stroke-width=".5"><path d="M12.022 8.196a.43.43 0 0 1-.607 0L7.43 4.209v8.401a.428.428 0 1 1-.858 0v-8.4L2.585 8.195a.429.429 0 0 1-.606-.607L6.697 2.87v.001a.43.43 0 0 1 .606 0l4.719 4.719v-.001a.43.43 0 0 1 0 .607h0zm1.84-7.595a.43.43 0 0 0-.428-.43H.566a.429.429 0 0 0 0 .858h12.868a.43.43 0 0 0 .429-.428h0z" id="Shape"/></g></g></g></g></svg>