<svg width="30" height="27" xmlns="http://www.w3.org/2000/svg"><g id="Page-1" stroke="none" stroke-width="1" fill="none" fill-rule="evenodd"><g id="Scenario-Settings---Help-Content---Error" transform="translate(-1096 -384)" fill="#FF6159" fill-rule="nonzero"><g id="np_error_560230_FF6159" transform="translate(1096 384)"><path d="M29.458 23.65l-4.756-8.235c-.925-1.563-2.394-4.149-3.319-5.744L16.66 1.469c-.925-1.564-2.394-1.564-3.319 0L8.617 9.702c-.925 1.563-2.393 4.149-3.318 5.744L.543 23.65c-.925 1.563-.16 2.872 1.66 2.872h25.595c1.82 0 2.554-1.31 1.66-2.872zm-13.533-1.915a1.393 1.393 0 0 1-1.85 0c-.255-.223-.383-.543-.383-.958 0-.351.128-.67.383-.925.256-.255.575-.383.925-.383.352 0 .67.128.925.383.256.256.383.543.383.925.001.414-.127.733-.383.958zm.32-9.607l-.383 4.276c-.033.51-.128.893-.256 1.18-.127.287-.352.415-.67.415-.32 0-.543-.127-.639-.382-.127-.256-.223-.671-.256-1.213l-.286-4.15c-.064-.797-.064-1.403-.064-1.755 0-.478.127-.861.383-1.117.255-.255.575-.415.99-.415.51 0 .83.16.99.511.16.352.255.83.255 1.5 0 .384-.032.767-.065 1.15z" id="Shape"/></g></g></g></svg>