<svg width="32" height="32" xmlns="http://www.w3.org/2000/svg"><g id="Page-1" stroke="none" stroke-width="1" fill="none" fill-rule="evenodd"><g id="Scenario-Settings---Help-Content---Delete-PDF" transform="translate(-24 -945)" fill="#FFF" fill-rule="nonzero"><g id="Group-6" transform="translate(0 920)"><g id="np_help_1009845_FFFFFF" transform="translate(24 25)"><path d="M16 0a16 16 0 1 0 0 32 16 16 0 0 0 0-32zm1.21 22.361C17.216 23.39 16.64 24 15.632 24c-1.007 0-1.68-.589-1.683-1.45 0-1.194.535-1.789 1.6-1.821.867-.025 1.77.506 1.661 1.632zm2.24-7.385c-.455.353-.931.673-1.389 1.018a2.256 2.256 0 0 0-1.017 2.016 1.282 1.282 0 0 1-.923 1.28 1.414 1.414 0 0 1-1.657-.496 1.36 1.36 0 0 1-.189-.663 4.446 4.446 0 0 1 1.821-3.73c.514-.392.998-.82 1.449-1.28.216-.255.346-.568.375-.9.074-.905-.509-1.487-1.446-1.548-1.133-.074-2.086.22-2.749 1.222-.285.483-.84.739-1.393.64-.96-.16-1.372-.941-.978-1.84a4.107 4.107 0 0 1 2-1.985A6.949 6.949 0 0 1 16.252 8c.57.06 1.136.153 1.693.279 1.705.484 2.72 1.846 2.847 3.657h.002a3.328 3.328 0 0 1-1.348 3.04h.004z" id="Shape"/></g></g></g></g></svg>