<?xml version="1.0" encoding="UTF-8"?>
<svg width="17px" height="17px" viewBox="0 0 17 17" version="1.1" xmlns="http://www.w3.org/2000/svg" xmlns:xlink="http://www.w3.org/1999/xlink">
    <!-- Generator: Sketch 54.1 (76490) - https://sketchapp.com -->
    <title>np_info_1582929_FFFFFF</title>
    <desc>Created with Sketch.</desc>
    <g id="Page-1" stroke="none" stroke-width="1" fill="none" fill-rule="evenodd">
        <g id="Meta-Info-Column-4" transform="translate(-1677.000000, -355.000000)" fill="#FFFFFF" fill-rule="nonzero">
            <g id="np_info_1582929_FFFFFF" transform="translate(1677.000000, 355.000000)">
                <path d="M15.1242977,8.4091814 C15.1242977,8.74494698 15.1014047,9.08069302 15.0571465,9.41491535 C15.0663035,9.34776419 15.0762235,9.27908735 15.0838546,9.21269023 C14.9938105,9.86665953 14.820583,10.5084 14.5634258,11.1165795 C14.5878444,11.055533 14.6153143,10.9944865 14.6397329,10.93344 C14.3879087,11.5286484 14.0597813,12.0872093 13.6645125,12.5984763 C13.7041917,12.5465858 13.7446367,12.495461 13.7850798,12.4443343 C13.3959059,12.9441539 12.9456854,13.3943743 12.4458659,13.7835483 C12.4977544,13.743869 12.5488811,13.703424 12.6000078,13.6629809 C12.0887408,14.0582498 11.5301604,14.3863772 10.9349715,14.6382014 C10.996018,14.6137828 11.0570646,14.5863128 11.1181111,14.5618942 C10.5091697,14.8175277 9.86819107,14.9930291 9.21422177,15.0823231 C9.28137293,15.0731661 9.35004977,15.0632461 9.41644688,15.055615 C8.74874456,15.1433696 8.07189991,15.1433696 7.40337712,15.055615 C7.47052828,15.0647721 7.53920512,15.0746922 7.60560223,15.0823231 C6.95163293,14.992279 6.30989247,14.8190514 5.70171293,14.5618942 C5.76275944,14.5863128 5.82380595,14.6137828 5.88485247,14.6382014 C5.28964409,14.3863772 4.73108316,14.0582498 4.21981619,13.6629809 C4.2717067,13.7026602 4.32283144,13.7431052 4.37395814,13.7835483 C3.8741386,13.3943743 3.42391814,12.9441539 3.03474419,12.4443343 C3.07442344,12.4962229 3.11486847,12.5473496 3.15531153,12.5984763 C2.7600427,12.0872093 2.43191526,11.5286288 2.18009107,10.93344 C2.20450967,10.9944865 2.23197963,11.055533 2.25639823,11.1165795 C2.00076474,10.5076381 1.82526335,9.86665953 1.7359694,9.21269023 C1.74512637,9.2798414 1.75504638,9.34851823 1.76267749,9.41491535 C1.67492288,8.74721302 1.67492288,8.07036837 1.76267749,7.40184558 C1.75352032,7.46899674 1.74360031,7.53767358 1.7359694,7.6040707 C1.82601349,6.9501014 1.99924102,6.30836093 2.25639823,5.7001814 C2.23197963,5.76122791 2.20450967,5.82227442 2.18009107,5.88332093 C2.43191526,5.28811256 2.7600427,4.72955163 3.15531153,4.21828465 C3.11563228,4.27017321 3.07518726,4.32129991 3.03474419,4.3724266 C3.42391814,3.87260707 3.8741386,3.4223866 4.37395814,3.03321265 C4.32206958,3.07289191 4.27094288,3.11333693 4.21981619,3.15378 C4.73108316,2.75851116 5.28966363,2.43038372 5.88485247,2.17855953 C5.82380595,2.20297814 5.76275944,2.23044809 5.70171293,2.2548667 C6.31065433,1.99923321 6.95163293,1.82373181 7.60560223,1.73443786 C7.53845107,1.74359484 7.46977423,1.75351485 7.40337712,1.76114595 C8.07107944,1.67339135 8.74792409,1.67339135 9.41644688,1.76114595 C9.34929572,1.75198898 9.28061888,1.74206897 9.21422177,1.73443786 C9.86819107,1.82448195 10.5099315,1.99770949 11.1181111,2.2548667 C11.0570646,2.23044809 10.996018,2.20297814 10.9349715,2.17855953 C11.5301799,2.43038372 12.0887408,2.75851116 12.6000078,3.15378 C12.5481193,3.11410074 12.4969926,3.07365572 12.4458659,3.03321265 C12.9456854,3.4223866 13.3959059,3.87260707 13.7850798,4.3724266 C13.7454006,4.32053805 13.7049555,4.26941135 13.6645125,4.21828465 C14.0597813,4.72955163 14.3879087,5.28813209 14.6397329,5.88332093 C14.6153143,5.82227442 14.5878444,5.76122791 14.5634258,5.7001814 C14.8190593,6.30912279 14.9945607,6.9501014 15.0838546,7.6040707 C15.0746976,7.53691953 15.0647776,7.4682427 15.0571465,7.40184558 C15.1014047,7.73761116 15.1242977,8.07335721 15.1242977,8.40910326 C15.1242977,8.80743907 15.47532,9.19126047 15.8873693,9.17217488 C16.2994186,9.1530893 16.6504409,8.8364093 16.6504409,8.40910326 C16.6466256,6.73642884 16.1353647,5.05301023 15.1624298,3.68947535 C14.9067963,3.33083442 14.6297916,2.9874307 14.3245591,2.67077023 C14.0231358,2.35942326 13.6950084,2.0832 13.3516242,1.81992837 C12.6976549,1.31782326 11.96664,0.936287442 11.1920428,0.652406512 C9.59719535,0.06636 7.79258233,0.0152372093 6.15946605,0.47842493 C4.58751349,0.924836093 3.13390326,1.85350493 2.09386605,3.11719702 C1.81305209,3.45677191 1.55208558,3.81312726 1.32544186,4.19161563 C1.1003414,4.56705656 0.91720186,4.96003981 0.751604651,5.36523237 C0.431115349,6.14738958 0.254070698,6.97914586 0.188453023,7.82233005 C0.0587296744,9.50111888 0.476905116,11.2294091 1.34986047,12.6693254 C2.19306419,14.060424 3.46197209,15.2164789 4.94779535,15.8880882 C5.35222605,16.0712277 5.7658186,16.2314724 6.19542977,16.3520417 C6.63191721,16.4741347 7.08059442,16.5489142 7.53081488,16.6023226 C8.38698977,16.7015227 9.25920279,16.6481085 10.1039498,16.4764144 C11.7125302,16.1498107 13.2250381,15.2997502 14.3559126,14.114647 C15.4967107,12.9211828 16.2903153,11.3797633 16.5383498,9.74899116 C16.6055009,9.30488512 16.6512848,8.85999767 16.6512848,8.40977721 C16.6512848,8.0114414 16.3002625,7.62762 15.8882132,7.64670558 C15.4738588,7.66578276 15.1243602,7.98168977 15.1243602,8.40901535 L15.1242977,8.4091814 Z" id="Path"></path>
                <path d="M9.15385116,12.0627907 L9.15385116,10.5991981 L9.15385116,8.26790512 L9.15385116,7.73221953 C9.15385116,7.33388372 8.80282884,6.95006233 8.39077953,6.96914791 C7.97718698,6.98822509 7.62770791,7.30491349 7.62770791,7.73221953 L7.62770791,9.19581209 L7.62770791,11.5271051 L7.62770791,12.0627907 C7.62770791,12.4611265 7.97873023,12.8449479 8.39077953,12.8258623 C8.80437209,12.8067853 9.15385116,12.4900967 9.15385116,12.0627907 Z" id="Path"></path>
                <path d="M9.15385116,5.2332 L9.15385116,4.71812372 C9.15385116,4.31978791 8.80282884,3.93596651 8.39077953,3.95505209 C7.97718698,3.97412908 7.62770791,4.29081767 7.62770791,4.71812372 L7.62770791,5.2332 C7.62770791,5.63153581 7.97873023,6.01535721 8.39077953,5.99627163 C8.80437209,5.97719464 9.15385116,5.66050605 9.15385116,5.2332 L9.15385116,5.2332 Z" id="Path"></path>
            </g>
        </g>
    </g>
</svg>