<?xml version="1.0" encoding="UTF-8"?>
<svg width="112px" height="38px" viewBox="0 0 112 38" version="1.1" xmlns="http://www.w3.org/2000/svg" xmlns:xlink="http://www.w3.org/1999/xlink">
    <!-- Generator: Sketch 54.1 (76490) - https://sketchapp.com -->
    <title>Group 2</title>
    <desc>Created with Sketch.</desc>
    <g id="Page-1" stroke="none" stroke-width="1" fill="none" fill-rule="evenodd">
        <g id="Group-2" transform="translate(0.000000, -0.315000)">
            <g id="Group" transform="translate(0.000000, 5.315000)" fill="#0747A6">
                <polygon id="Path-2" points="19.8813017 0 19.8813017 2.23423875 2.44688966 2.23423875 2.44688966 30.4134159 5.51180312 30.4134159 5.51180312 32.8769391 0 32.8769391 0 0"></polygon>
                <polygon id="Path-2-Copy" transform="translate(101.685332, 16.438470) scale(-1, 1) translate(-101.685332, -16.438470) " points="111.625983 0 111.625983 2.23423875 94.1915705 2.23423875 94.1915705 30.4134159 97.256484 30.4134159 97.256484 32.8769391 91.7446809 32.8769391 91.7446809 0"></polygon>
            </g>
            <path d="M14.1482255,20.2754685 C16.0874604,20.2754685 17.5363557,20.9714108 18.4949548,22.3633163 C19.4535539,23.7552217 19.9328462,25.9103978 19.9328462,28.8289092 L19.9328462,29.7381332 L11.8343772,29.7381332 C11.8564139,31.2647392 12.0492327,32.4040641 12.4128392,33.156142 C12.7764458,33.90822 13.3989749,34.2842533 14.2804454,34.2842533 C14.9195114,34.2842533 15.4208402,34.0092438 15.7844468,33.4592167 C16.1480533,32.9091895 16.3298539,32.1515104 16.3298539,31.1861567 L19.9328462,31.1861567 C19.9328462,33.2066646 19.4149901,34.7332476 18.3792624,35.7659517 C17.3435346,36.7986557 15.9772759,37.315 14.2804454,37.315 C10.0934609,37.315 8,34.4863314 8,28.8289092 C8,23.1265869 10.049388,20.2754685 14.1482255,20.2754685 Z M14.1482255,23.3062152 C13.3989756,23.3062152 12.8425557,23.6205117 12.4789492,24.2491142 C12.1153426,24.8777167 11.9115057,25.8093813 11.8674322,27.0441362 L16.131524,27.0441362 C16.131524,25.8318314 15.9662508,24.9057792 15.6356994,24.2659517 C15.305148,23.6261242 14.8093283,23.3062152 14.1482255,23.3062152 Z M30.2459986,20.2754685 C31.5461675,20.2754685 32.5763706,20.6964014 33.3366388,21.5382796 C34.0969071,22.3801579 34.4770355,23.7103057 34.4770355,25.5287628 L34.4770355,36.9445754 L30.8409882,36.9445754 L30.8409882,26.5390117 C30.8409882,25.5287578 30.6591876,24.7991408 30.2955811,24.3501391 C29.9319745,23.9011373 29.4086093,23.6766398 28.7254697,23.6766398 C28.0202934,23.6766398 27.4308189,23.9853239 26.9570285,24.6027013 C26.4832382,25.2200787 26.2463466,26.0002076 26.2463466,26.9431113 L26.2463466,36.9445754 L22.6102992,36.9445754 L22.6102992,20.6458931 L25.618302,20.6458931 L26.0149617,22.6663909 L26.1802366,22.6663909 C26.6430086,21.9479881 27.2104467,21.369907 27.8825678,20.9321303 C28.554689,20.4943536 29.3424914,20.2754685 30.2459986,20.2754685 Z M41.8152401,14.315 C42.2339385,14.315 42.7022127,14.3486746 43.2200765,14.4160249 C43.7379404,14.4833752 44.1511235,14.5731742 44.4596381,14.6854246 L44.4596381,17.4467716 L42.9721642,17.4467716 C42.1127306,17.4467716 41.6830202,17.8845417 41.6830202,18.7600952 L41.6830202,20.6458931 L44.4596381,20.6458931 L44.4596381,23.7776647 L41.6830202,23.7776647 L41.6830202,36.9445754 L38.0469729,36.9445754 L38.0469729,23.7776647 L36.4272791,23.7776647 L36.4272791,20.6458931 L38.0469729,20.6458931 L38.0469729,18.6590703 C38.0469729,17.4243154 38.3389556,16.3916269 38.9229297,15.5609736 C39.5069039,14.7303204 40.4709977,14.315 41.8152401,14.315 Z M52.5250522,20.2754685 C52.9437506,20.2754685 53.2853153,20.3091431 53.5497564,20.3764934 C53.8141976,20.4438437 53.9794708,20.4887432 54.0455811,20.5111933 L54.0455811,24.1144143 L52.756437,24.1144143 C51.8749666,24.1144143 51.1587826,24.4062611 50.6078636,24.9899634 C50.0569446,25.5736657 49.7814892,26.539005 49.7814892,27.8860102 L49.7814892,36.9445754 L46.1454419,36.9445754 L46.1454419,20.6458931 L49.1534447,20.6458931 L49.5831594,23.0368155 L49.7814892,23.0368155 C50.0459303,22.2286124 50.387495,21.5663447 50.8061935,21.0499927 C51.2248919,20.5336407 51.7978391,20.2754685 52.5250522,20.2754685 Z M60.7557411,20.2754685 C62.5627555,20.2754685 63.9179959,20.6907889 64.8215031,21.5214422 C65.7250103,22.3520954 66.1767571,23.5307073 66.1767571,25.0573133 L66.1767571,33.1056296 C66.1767571,33.464831 66.2593937,33.734228 66.4246695,33.9138287 C66.5899452,34.0934294 66.7937821,34.1832284 67.0361865,34.1832284 L67.763396,34.1832284 L67.763396,36.8098755 C67.1904402,37.1466269 66.463238,37.315 65.5817676,37.315 C64.8765912,37.315 64.2760985,37.1185647 63.7802714,36.7256881 C63.2844443,36.3328116 62.9483887,35.8220798 62.7720946,35.1934773 L62.6398747,35.1934773 C62.1330292,35.9118801 61.5766094,36.4450617 60.9705985,36.7930381 C60.3645876,37.1410144 59.565767,37.315 58.5741127,37.315 C57.5604217,37.315 56.6348917,36.9726413 55.7974948,36.2879136 C54.9600979,35.6031859 54.5414057,34.4189616 54.5414057,32.735205 C54.5414057,30.6473468 55.2355533,29.1768881 56.6238692,28.3237848 C58.0121851,27.4706814 59.9734274,27.0441362 62.5076548,27.0441362 L62.5076548,25.360388 C62.5076548,24.7093354 62.3864545,24.204216 62.1440501,23.8450146 C61.9016457,23.4858132 61.4609171,23.3062152 60.8218511,23.3062152 C60.1607483,23.3062152 59.6814559,23.4802008 59.3839596,23.8281772 C59.0864634,24.1761535 58.9377175,24.5746366 58.9377175,25.0236384 L58.9377175,25.4950878 L55.3347251,25.4950878 C55.3126884,25.3828374 55.3016701,25.147115 55.3016701,24.7879136 C55.3016701,23.4409083 55.7974898,22.3520954 56.7891441,21.5214422 C57.7807983,20.6907889 59.1029841,20.2754685 60.7557411,20.2754685 Z M62.5076548,29.7381332 C59.7089862,29.7381332 58.3096729,30.6248984 58.3096729,32.3984553 C58.3096729,33.6107601 58.9046565,34.2169034 60.0946416,34.2169034 C60.9100018,34.2169034 61.5160036,33.8857695 61.9126653,33.2234919 C62.309327,32.5612144 62.5076548,31.7137363 62.5076548,30.6810322 L62.5076548,29.7381332 Z M84.6214335,20.2754685 C87.2438081,20.2754685 88.5549756,22.0265491 88.5549756,25.5287628 L88.5549756,36.9445754 L84.9189283,36.9445754 L84.9189283,26.5390117 C84.9189283,25.5063077 84.7756915,24.7710783 84.4892136,24.3333016 C84.2027358,23.8955249 83.7509889,23.6766398 83.1339596,23.6766398 C82.5169303,23.6766398 81.9935651,23.9572617 81.5638483,24.5185139 C81.1341315,25.0797661 80.9192763,25.7981581 80.9192763,26.6737116 L80.9192763,36.9445754 L77.3162839,36.9445754 L77.3162839,26.5390117 C77.3162839,25.5063077 77.167538,24.7710783 76.8700418,24.3333016 C76.5725455,23.8955249 76.1152896,23.6766398 75.4982603,23.6766398 C74.8591942,23.6766398 74.335829,23.9797115 73.9281489,24.5858638 C73.5204689,25.1920162 73.3166319,25.9777575 73.3166319,26.9431113 L73.3166319,36.9445754 L69.6805846,36.9445754 L69.6805846,20.6458931 L72.6885873,20.6458931 L73.085247,22.6663909 L73.2505219,22.6663909 C73.6692204,21.9479881 74.1980947,21.369907 74.8371608,20.9321303 C75.4762268,20.4943536 76.2144472,20.2754685 77.0518441,20.2754685 C78.7486747,20.2754685 79.8945691,21.0724347 80.4895616,22.6663909 C80.9302968,21.9704382 81.503244,21.3979695 82.2084203,20.9489678 C82.9135967,20.499966 83.7179264,20.2754685 84.6214335,20.2754685 Z M97.2153793,20.2754685 C99.1546142,20.2754685 100.603509,20.9714108 101.562109,22.3633163 C102.520708,23.7552217 103,25.9103978 103,28.8289092 L103,29.7381332 L94.901531,29.7381332 C94.9235677,31.2647392 95.1163865,32.4040641 95.479993,33.156142 C95.8435996,33.90822 96.4661287,34.2842533 97.3475992,34.2842533 C97.9866652,34.2842533 98.487994,34.0092438 98.8516006,33.4592167 C99.2152071,32.9091895 99.3970077,32.1515104 99.3970077,31.1861567 L103,31.1861567 C103,33.2066646 102.482144,34.7332476 101.446416,35.7659517 C100.410688,36.7986557 99.0444297,37.315 97.3475992,37.315 C93.1606146,37.315 91.0671538,34.4863314 91.0671538,28.8289092 C91.0671538,23.1265869 93.1165418,20.2754685 97.2153793,20.2754685 Z M97.2153793,23.3062152 C96.4661294,23.3062152 95.9097095,23.6205117 95.546103,24.2491142 C95.1824964,24.8777167 94.9786595,25.8093813 94.9345859,27.0441362 L99.1986778,27.0441362 C99.1986778,25.8318314 99.0334046,24.9057792 98.7028532,24.2659517 C98.3723018,23.6261242 97.8764821,23.3062152 97.2153793,23.3062152 Z" id="enframe" fill="#FFFFFF" fill-rule="nonzero"></path>
            <path d="M25.326363,0.619086538 C26.3843717,0.619086538 27.2032582,0.978257626 27.7830471,1.69661058 C28.3628359,2.41496353 28.6527259,3.4968838 28.6527259,4.94240385 C28.6527259,6.37910975 28.3628359,7.45662301 27.7830471,8.17497596 C27.2032582,8.89332891 26.3843717,9.2525 25.326363,9.2525 C24.2683542,9.2525 23.4494677,8.89332891 22.8696789,8.17497596 C22.2898901,7.45662301 22,6.37910975 22,4.94240385 C22,3.50569794 22.2898901,2.42598118 22.8696789,1.70322115 C23.4494677,0.98046113 24.2683542,0.619086538 25.326363,0.619086538 Z M25.326363,1.95442308 C24.7423421,1.95442308 24.3001011,2.19019796 23.9996266,2.66175481 C23.6991521,3.13331165 23.5489171,3.79215923 23.5489171,4.63831731 L23.5489171,5.24649038 C23.5489171,6.09264846 23.6991521,6.74929254 23.9996266,7.21644231 C24.3001011,7.68359208 24.7423421,7.91716346 25.326363,7.91716346 C25.9103838,7.91716346 26.3547408,7.68359208 26.6594473,7.21644231 C26.9641539,6.74929254 27.1165049,6.09264846 27.1165049,5.24649038 L27.1165049,4.63831731 C27.1165049,3.79215923 26.9641539,3.13331165 26.6594473,2.66175481 C26.3547408,2.19019796 25.9103838,1.95442308 25.326363,1.95442308 Z M32.4488424,2.56259615 C33.0751836,2.56259615 33.5618604,2.84023761 33.9088872,3.39552885 C34.2559141,3.95082008 34.4294249,4.79255846 34.4294249,5.92076923 C34.4294249,7.03135171 34.2559141,7.86427607 33.9088872,8.41956731 C33.5618604,8.97485855 33.1048074,9.2525 32.5377147,9.2525 C32.2245441,9.2525 31.943118,9.18198788 31.6934279,9.04096154 C31.4437379,8.89993519 31.2638791,8.70161987 31.1538462,8.44600962 L31.103062,8.44600962 L31.103062,11.2092308 L29.7064974,11.2092308 L29.7064974,2.70802885 L30.8618372,2.70802885 L31.0141897,3.50129808 L31.0649739,3.50129808 C31.2173271,3.19280294 31.4141138,2.95923156 31.6553398,2.80057692 C31.8965658,2.64192228 32.161064,2.56259615 32.4488424,2.56259615 Z M32.029873,3.89793269 C31.6997743,3.89793269 31.4627839,4.04777094 31.3188947,4.34745192 C31.1750055,4.64713291 31.103062,5.09224064 31.103062,5.68278846 L31.103062,6.11908654 C31.103062,6.71844851 31.1750055,7.17016675 31.3188947,7.47425481 C31.4627839,7.77834287 31.6997743,7.93038462 32.029873,7.93038462 C32.3599718,7.93038462 32.5990782,7.78054637 32.7471994,7.48086538 C32.8953206,7.1811844 32.9693801,6.73166966 32.9693801,6.13230769 L32.9693801,5.68278846 C32.9693801,5.08342649 32.8953206,4.63611526 32.7471994,4.34084135 C32.5990782,4.04556743 32.3599718,3.89793269 32.029873,3.89793269 Z M37.6288275,2.56259615 C38.3736657,2.56259615 38.9301699,2.8358306 39.298357,3.38230769 C39.666544,3.92878478 39.8506348,4.77493017 39.8506348,5.92076923 L39.8506348,6.27774038 L36.7401046,6.27774038 C36.7485686,6.87710236 36.8226281,7.32441359 36.9622853,7.6196875 C37.1019424,7.91496141 37.3410488,8.06259615 37.6796117,8.06259615 C37.9250697,8.06259615 38.1176244,7.95462448 38.2572816,7.73867788 C38.3969387,7.52273129 38.4667662,7.22525831 38.4667662,6.84625 L39.8506348,6.84625 C39.8506348,7.6395232 39.6517321,8.23887618 39.2539208,8.64432692 C38.8561095,9.04977767 38.3313451,9.2525 37.6796117,9.2525 C36.0714383,9.2525 35.2673637,8.14193418 35.2673637,5.92076923 C35.2673637,3.68197599 36.0545104,2.56259615 37.6288275,2.56259615 Z M37.6288275,3.7525 C37.3410491,3.7525 37.1273345,3.8758962 36.9876774,4.12269231 C36.8480202,4.36948841 36.7697287,4.73527001 36.7528006,5.22004808 L38.39059,5.22004808 C38.39059,4.74408416 38.3271104,4.38050606 38.2001494,4.12930288 C38.0731883,3.87809971 37.8827496,3.7525 37.6288275,3.7525 Z M45.5003734,9.10706731 L43.9133682,9.10706731 L42.8849888,6.99168269 L42.8215086,6.99168269 L41.7931292,9.10706731 L40.2823002,9.10706731 L42.0724421,5.80177885 L40.4346527,2.70802885 L42.0089619,2.70802885 L42.9230769,4.57221154 L42.9865571,4.57221154 L43.9006721,2.70802885 L45.4115011,2.70802885 L43.7483196,5.76211538 L45.5003734,9.10706731 Z M53.2322629,9.10706731 L52.7498133,7.46764423 L49.7916355,7.46764423 L49.309186,9.10706731 L47.8618372,9.10706731 L50.4391337,0.777740385 L52.1784914,0.777740385 L54.7557879,9.10706731 L53.2322629,9.10706731 Z M51.2389843,2.16596154 C51.2305202,2.24528886 51.2051284,2.41275513 51.1628081,2.66836538 C51.1204877,2.92397564 51.073936,3.13110498 51.0231516,3.28975962 L50.1979089,6.07942308 L52.34354,6.07942308 L51.5309933,3.28975962 C51.4802089,3.11347668 51.4294252,2.90194034 51.3786408,2.65514423 C51.3278564,2.40834812 51.2982326,2.24528886 51.2897685,2.16596154 L51.2389843,2.16596154 Z M58.3487677,2.56259615 C58.8481479,2.56259615 59.2438372,2.72785892 59.5358476,3.05838942 C59.8278581,3.38891992 59.9738611,3.91115028 59.9738611,4.62509615 L59.9738611,9.10706731 L58.5772965,9.10706731 L58.5772965,5.02173077 C58.5772965,4.62509417 58.507469,4.3386387 58.3678118,4.16235577 C58.2281546,3.98607284 58.027136,3.89793269 57.7647498,3.89793269 C57.4938996,3.89793269 57.2674891,4.01912539 57.0855116,4.26151442 C56.9035341,4.50390346 56.8125467,4.81019046 56.8125467,5.18038462 L56.8125467,9.10706731 L55.4159821,9.10706731 L55.4159821,2.70802885 L56.5713219,2.70802885 L56.7236744,3.50129808 L56.7871546,3.50129808 C56.9649001,3.21924538 57.1828466,2.99228451 57.4410007,2.82040865 C57.6991549,2.64853279 58.0017409,2.56259615 58.3487677,2.56259615 Z M63.1605676,2.56259615 C63.8546213,2.56259615 64.3751539,2.72565542 64.7221807,3.05177885 C65.0692076,3.37790227 65.2427184,3.84063803 65.2427184,4.44 L65.2427184,7.59985577 C65.2427184,7.74088212 65.2744582,7.84665029 65.3379388,7.91716346 C65.4014193,7.98767663 65.4797108,8.02293269 65.5728155,8.02293269 L65.8521285,8.02293269 L65.8521285,9.05418269 C65.6320626,9.18639489 65.3527525,9.2525 65.0141897,9.2525 C64.7433394,9.2525 64.512697,9.17537737 64.3222554,9.02112981 C64.1318138,8.86688224 64.0027387,8.66636341 63.9350261,8.41956731 L63.884242,8.41956731 C63.6895684,8.70162 63.4758538,8.91095284 63.2430919,9.04757212 C63.0103299,9.18419139 62.703512,9.2525 62.3226288,9.2525 C61.9332816,9.2525 61.577796,9.11808628 61.2561613,8.84925481 C60.9345266,8.58042334 60.7737117,8.11548407 60.7737117,7.45442308 C60.7737117,6.63470744 61.0403259,6.0573895 61.5735624,5.72245192 C62.1067988,5.38751435 62.8600897,5.22004808 63.8334578,5.22004808 L63.8334578,4.55899038 C63.8334578,4.30338013 63.7869061,4.10506481 63.6938013,3.96403846 C63.6006966,3.82301212 63.4314177,3.7525 63.1859597,3.7525 C62.9320376,3.7525 62.7479468,3.82080861 62.6336819,3.95742788 C62.5194169,4.09404716 62.4622853,4.25049591 62.4622853,4.42677885 L62.4622853,4.611875 L61.0784167,4.611875 C61.0699527,4.56780427 61.0657207,4.47525712 61.0657207,4.33423077 C61.0657207,3.80538197 61.2561594,3.37790227 61.6370426,3.05177885 C62.0179257,2.72565542 62.5257623,2.56259615 63.1605676,2.56259615 Z M63.8334578,6.27774038 C62.7585209,6.27774038 62.2210605,6.62589395 62.2210605,7.32221154 C62.2210605,7.79817546 62.449587,8.03615385 62.9066468,8.03615385 C63.2198173,8.03615385 63.4525758,7.90614713 63.6049291,7.64612981 C63.7572823,7.38611248 63.8334578,7.05338344 63.8334578,6.64793269 L63.8334578,6.27774038 Z M66.5758028,0.315 L67.9723674,0.315 L67.9723674,9.10706731 L66.5758028,9.10706731 L66.5758028,0.315 Z M72.2001494,8.77653846 C71.9885476,9.56099751 71.7113535,10.180182 71.3685586,10.6341106 C71.0257638,11.0880391 70.5792908,11.315 70.0291262,11.315 C69.7921322,11.315 69.5826497,11.2995755 69.4006721,11.268726 C69.2186946,11.2378764 69.1277072,11.2180449 69.1277072,11.2092308 L69.1277072,10.0986538 L69.7498133,10.0986538 C69.9698791,10.0986538 70.1624338,10.0171242 70.3274832,9.8540625 C70.4925326,9.69100079 70.6131438,9.44200488 70.6893204,9.10706731 L68.6579537,2.70802885 L70.1433906,2.70802885 L71.0575056,5.70923077 C71.1506104,6.0177259 71.2267859,6.40113553 71.2860344,6.85947115 L71.3749066,7.37509615 L71.4383869,7.37509615 L71.5145631,6.85947115 C71.5822757,6.34825065 71.6499872,5.96924803 71.7176998,5.72245192 L72.4794623,2.70802885 L73.8887229,2.70802885 L72.2001494,8.77653846 Z M76.935773,3.93759615 L76.04705,3.93759615 L76.04705,7.49408654 C76.04705,7.66155532 76.0893698,7.79156204 76.1740105,7.88411058 C76.2586512,7.97665912 76.3813783,8.02293269 76.5421957,8.02293269 L76.935773,8.02293269 L76.935773,9.10706731 C76.8342041,9.14232389 76.700897,9.17537645 76.5358476,9.20622596 C76.3707983,9.23707547 76.2247953,9.2525 76.0978342,9.2525 C75.5815259,9.2525 75.2112284,9.08944073 74.9869305,8.76331731 C74.7626327,8.43719388 74.6504854,8.02734221 74.6504854,7.53375 L74.6504854,3.93759615 L74.0283794,3.93759615 L74.0283794,2.70802885 L74.6504854,2.70802885 L74.8663181,0.909951923 L76.04705,0.909951923 L76.04705,2.70802885 L76.935773,2.70802885 L76.935773,3.93759615 Z M77.7483196,0.315 L79.1448842,0.315 L79.1448842,1.63711538 L77.7483196,1.63711538 L77.7483196,0.315 Z M77.7483196,2.70802885 L79.1448842,2.70802885 L79.1448842,9.10706731 L77.7483196,9.10706731 L77.7483196,2.70802885 Z M82.5347274,2.56259615 C83.211853,2.56259615 83.7387335,2.771929 84.1153846,3.19060096 C84.4920357,3.60927293 84.6803585,4.25049248 84.6803585,5.11427885 L83.2584018,5.11427885 C83.2584018,4.24167833 83.0171794,3.80538462 82.5347274,3.80538462 C82.246949,3.80538462 82.0395824,3.95962987 81.9126214,4.268125 C81.7856603,4.57662013 81.7221807,5.0481699 81.7221807,5.68278846 L81.7221807,6.13230769 C81.7221807,6.7757404 81.7877763,7.25169718 81.9189694,7.56019231 C82.0501625,7.86868744 82.268109,8.02293269 82.5728155,8.02293269 C82.8267376,8.02293269 83.0108284,7.91496102 83.1250934,7.69901442 C83.2393583,7.48306783 83.2964899,7.15033879 83.2964899,6.70081731 L84.6803585,6.70081731 C84.6803585,7.56460368 84.4962677,8.20582323 84.1280807,8.62449519 C83.7598936,9.04316716 83.2414771,9.2525 82.5728155,9.2525 C81.7771929,9.2525 81.1910649,8.98367256 80.8144137,8.44600962 C80.4377626,7.90834667 80.2494399,7.06660829 80.2494399,5.92076923 C80.2494399,4.77493017 80.4398786,3.92878478 80.8207618,3.38230769 C81.2016449,2.8358306 81.7729611,2.56259615 82.5347274,2.56259615 Z M87.7654966,2.56259615 C88.3749097,2.56259615 88.8742823,2.71904491 89.2636296,3.03194712 C89.6529768,3.34484932 89.8476475,3.77012552 89.8476475,4.30778846 L89.8349515,4.58543269 L88.4129948,4.58543269 L88.4129948,4.55899038 C88.4045307,4.29456599 88.3410511,4.09404716 88.2225541,3.95742788 C88.1040572,3.82080861 87.9390103,3.7525 87.7274085,3.7525 C87.5073427,3.7525 87.3317159,3.80979109 87.2005228,3.924375 C87.0693297,4.03895891 87.0037341,4.19320416 87.0037341,4.38711538 C87.0037341,4.6162832 87.0926055,4.78154597 87.270351,4.88290865 C87.4480965,4.98427134 87.7274066,5.08783601 88.1082898,5.19360577 C88.497637,5.29937553 88.8192668,5.40955071 89.0731889,5.52413462 C89.3271111,5.63871852 89.5450576,5.82821983 89.7270351,6.09264423 C89.9090126,6.35706863 90,6.71844322 90,7.17677885 C90,8.56059987 89.2382451,9.2525 87.7147125,9.2525 C87.0206587,9.2525 86.4747344,9.0674057 86.0769231,8.69721154 C85.6791118,8.32701738 85.4802091,7.83783958 85.4802091,7.22966346 L85.4929052,7.07100962 L86.9275579,7.07100962 L86.9275579,7.16355769 C86.9360219,7.47205282 87.0206614,7.6990137 87.1814787,7.84444712 C87.342296,7.98988053 87.5369667,8.06259615 87.7654966,8.06259615 C87.9855625,8.06259615 88.1760012,8.00750856 88.3368185,7.89733173 C88.4976359,7.7871549 88.5780433,7.61307811 88.5780433,7.37509615 C88.5780433,7.11067175 88.482824,6.92117044 88.2923824,6.80658654 C88.1019408,6.69200263 87.8035868,6.57301344 87.3973114,6.44961538 C87.0164283,6.34384562 86.7032624,6.23146694 86.4578043,6.11247596 C86.2123463,5.99348498 86.0028637,5.80839068 85.8293503,5.5571875 C85.6558368,5.30598432 85.5690814,4.96003425 85.5690814,4.51932692 C85.5690814,3.89352251 85.774332,3.41095522 86.1848394,3.07161058 C86.5953468,2.73226593 87.1222273,2.56259615 87.7654966,2.56259615 Z" id="OpexAnalytics" fill="#FFFFFF" fill-rule="nonzero"></path>
        </g>
    </g>
</svg>