<svg width="97" height="43" xmlns="http://www.w3.org/2000/svg"><g id="Johnson-&amp;-Johnson" stroke="none" stroke-width="1" fill="none" fill-rule="evenodd"><g id="Johnson-&amp;-Johnson-Home-Page-2" transform="translate(-1804 -1017)"><g id="Powered-By-2" transform="translate(1805 1016)"><g id="new-opex-logo-copy" transform="translate(9 14)" fill="#FFF"><path d="M37.545 11.964c1.444 0 2.277-1.064 2.277-3.026 0-1.949-.833-3.013-2.277-3.013-1.444 0-2.277 1.064-2.277 3.013 0 1.962.833 3.026 2.277 3.026zm0 1.258c-2.416 0-3.79-1.769-3.79-4.284 0-2.502 1.374-4.285 3.79-4.285 2.43 0 3.79 1.783 3.79 4.285 0 2.515-1.36 4.284-3.79 4.284z" id="Fill-1" fill-rule="nonzero"/><path d="M44.75 12.047c1.083 0 1.694-.815 1.694-2.087 0-1.257-.611-2.073-1.694-2.073s-1.708.816-1.708 2.073c0 1.272.625 2.087 1.708 2.087zm-2.985 3.69v-8.9h1.055l.292.87c.472-.649 1.124-1.008 2.04-1.008 1.444 0 2.708 1.258 2.708 3.261 0 2.018-1.264 3.262-2.707 3.262-.917 0-1.57-.345-2.041-1.009v3.524h-1.347z" id="Fill-2" fill-rule="nonzero"/><path d="M49.664 9.325h3.082c-.041-.899-.61-1.52-1.513-1.52-.93 0-1.5.635-1.569 1.52zm1.639 3.897c-1.736 0-3.069-1.23-3.069-3.29 0-1.934 1.278-3.233 3.027-3.233 1.819 0 2.943 1.423 2.943 3.04 0 .194-.014.36-.042.54H49.65c.042 1.105.625 1.81 1.639 1.81.86 0 1.332-.525 1.457-1.106h1.444c-.347 1.382-1.402 2.24-2.887 2.24z" id="Fill-3" fill-rule="nonzero"/><path id="Fill-4" d="M53.69 13.084l2.152-3.124-2.11-3.123H55.3l1.402 2.225 1.444-2.225h1.485l-2.096 3.068 2.138 3.179h-1.569l-1.458-2.28-1.471 2.28H53.69"/><path d="M38.642 19.532l-1.18-3.358-1.167 3.358h2.347zm-4.86 3.055l3.096-8.293h1.25l3.082 8.293h-1.5l-.666-1.894H35.88l-.653 1.894h-1.443z" id="Fill-5" fill-rule="nonzero"/><path d="M41.793 22.587V16.34h1.055l.291.926a2.483 2.483 0 0 1 2.083-1.064c1.222 0 2.124.787 2.124 2.294v4.09h-1.347v-3.745c0-.967-.485-1.423-1.29-1.423-1.014 0-1.57.65-1.57 1.686v3.483h-1.346" id="Fill-6"/><path d="M49.9 21.647c1.111 0 1.597-.65 1.597-1.686v-.58c-.5.746-2.624.29-2.624 1.437 0 .483.375.829 1.027.829zm3.069 1.078c-.695 0-1.139-.373-1.32-1.106-.416.747-1.096 1.106-2.026 1.106-1.153 0-2.069-.719-2.069-1.838 0-2.391 3.901-1.327 3.901-2.612 0-.525-.388-.954-1.18-.954-.75 0-1.263.4-1.305 1.161h-1.319c.014-1.285 1.083-2.28 2.624-2.28 1.708 0 2.555.953 2.555 2.308v2.501c0 .346.139.484.472.484a.66.66 0 0 0 .446-.14v1.216c-.22.122-.46.154-.78.154z" id="Fill-7" fill-rule="nonzero"/><path id="Fill-8" d="M53.748 22.57h1.347v-8.863h-1.347z"/><path d="M56.564 25.362c-.403 0-.708-.041-.972-.207v-1.216c.222.152.458.193.763.193.486 0 .75-.18.944-.663l.334-.802-2.402-6.343h1.485l.93 2.736c.209.636.43 1.34.653 2.06.236-.733.444-1.438.666-2.06l.944-2.736h1.417l-2.75 7.27c-.416 1.119-.902 1.768-2.012 1.768" id="Fill-9"/><path d="M63.28 22.709c-1.138 0-1.944-.636-1.944-1.977v-3.261h-1.263v-1.147h1.263l.278-2.046h1.055v2.046h1.722v1.147h-1.722v3.206c0 .622.403.802.875.802.277 0 .5-.042.708-.194v1.216c-.278.18-.61.208-.972.208" id="Fill-10"/><path d="M64.918 22.57h1.347v-6.246h-1.347v6.247zm-.139-7.241h1.625v-1.562h-1.625v1.562z" id="Fill-11" fill-rule="nonzero"/><path d="M69.66 22.725c-1.804 0-2.998-1.368-2.998-3.262 0-1.88 1.194-3.261 2.998-3.261 1.639 0 2.666 1.091 2.833 2.474h-1.416c-.098-.733-.583-1.286-1.403-1.286-1.04 0-1.596.816-1.596 2.073 0 1.272.555 2.087 1.596 2.087.82 0 1.305-.553 1.403-1.285h1.416c-.167 1.368-1.194 2.46-2.833 2.46" id="Fill-12"/><path d="M75.41 22.725c-1.596 0-2.72-.898-2.748-2.17h1.305c.014.636.583 1.106 1.471 1.106.833 0 1.278-.346 1.278-.857 0-1.216-3.832-.207-3.832-2.64 0-1.105.986-1.962 2.43-1.962 1.513 0 2.554.94 2.582 2.156H76.59c-.014-.636-.542-1.092-1.32-1.092-.651 0-1.054.36-1.054.788 0 1.326 3.832.235 3.832 2.612 0 1.105-.972 2.059-2.638 2.059" id="Fill-13"/><path d="M16.377 28.208a11.95 11.95 0 0 1-6.882-2.184 11.922 11.922 0 0 1-4.285-5.583 11.872 11.872 0 0 1-.27-7.31A11.894 11.894 0 0 1 8.818 7.24a11.94 11.94 0 0 1 6.649-2.667 11.987 11.987 0 0 1 7.079 1.681 11.947 11.947 0 0 1 4.672 5.253 11.865 11.865 0 0 1 .806 7.257 11.86 11.86 0 0 1-3.434 6.167 11.938 11.938 0 0 1-6.367 3.136c-.61.094-1.228.141-1.845.141zm0-25.402a13.75 13.75 0 0 0-4.213.66A13.631 13.631 0 0 0 5.553 8.13a13.549 13.549 0 0 0-1.98 3.584 13.585 13.585 0 0 0-.312 8.363 13.496 13.496 0 0 0 1.718 3.738 13.677 13.677 0 0 0 6.239 5.121c1.306.533 2.695.859 4.103.966a13.78 13.78 0 0 0 4.293-.345 13.608 13.608 0 0 0 6.959-4.178 13.466 13.466 0 0 0 3.342-7.425 13.632 13.632 0 0 0-.181-4.294 13.47 13.47 0 0 0-1.443-3.88 13.645 13.645 0 0 0-11.914-6.973z" id="Fill-14" fill-rule="nonzero"/><path d="M7.21 27.741a14.518 14.518 0 0 1-3.735-4.553 14.426 14.426 0 0 1-1.607-5.812c-.108-1.821.127-3.66.7-5.393a14.453 14.453 0 0 1 2.424-4.466 14.528 14.528 0 0 1 8.618-5.215c1.875-.36 3.823-.35 5.694.03a14.542 14.542 0 0 1 9.277 6.31c.163.249.308.508.469.758.09.139.228.415.394.481.214.087-.003-.567-.039-.662-.318-.868-.774-1.681-1.296-2.442a15.46 15.46 0 0 0-3.936-3.953A15.374 15.374 0 0 0 19.046.523a15.575 15.575 0 0 0-5.7-.297A15.369 15.369 0 0 0 4.3 4.81a15.208 15.208 0 0 0-4.215 9.23c-.172 1.94.026 3.91.59 5.775a15.27 15.27 0 0 0 2.662 5.073c.59.742 1.248 1.43 1.965 2.051.707.614 1.48 1.22 2.332 1.621.088.041.661.281.488.018-.095-.145-.243-.265-.372-.38a16.264 16.264 0 0 0-.54-.457" id="Fill-15"/><path d="M23.937 8.238c-.27-.223-.534-.453-.814-.664-.155-.117-.318-.244-.496-.325-.261-.12-.126.133-.043.252.29.422.68.765 1.007 1.158.426.512.804 1.065 1.127 1.647a10.607 10.607 0 0 1 1.05 7.436 10.612 10.612 0 0 1-9.332 8.186 10.719 10.719 0 0 1-7.549-2.174c-.043-.033-.569-.545-.65-.395-.04.072.081.225.116.277.139.203.312.384.486.558a10.21 10.21 0 0 0 3.361 2.203 11.148 11.148 0 0 0 7.463.323 11.095 11.095 0 0 0 5.356-3.657 10.971 10.971 0 0 0 2.373-6.168 10.99 10.99 0 0 0-3.455-8.657" id="Fill-16"/></g><text id="Powered-by" font-family="Lato-BoldItalic, Lato" font-size="9" font-style="italic" font-weight="bold" fill="#FFF"><tspan x="26" y="9">Powered by</tspan></text><path id="Path-10" stroke="#D51900" stroke-width="2" fill-rule="nonzero" d="M22.548 6.938H.854v25.966h3.694"/><path id="Path-10-Copy" stroke="#D51900" stroke-width="2" fill-rule="nonzero" d="M73.854 6.938h20.694v25.966h-3.694"/></g></g></g></svg>