<?xml version="1.0" encoding="UTF-8"?>
<svg width="15px" height="16px" viewBox="0 0 15 16" version="1.1" xmlns="http://www.w3.org/2000/svg" xmlns:xlink="http://www.w3.org/1999/xlink">
    <!-- Generator: Sketch 57.1 (83088) - https://sketch.com -->
    <title>np_upload_2225491_FFFFFF</title>
    <desc>Created with Sketch.</desc>
    <g id="Tableau-Settings" stroke="none" stroke-width="1" fill="none" fill-rule="evenodd">
        <g id="Tableau-Automation-UI---2" transform="translate(-696.000000, -398.000000)" fill="#FFFFFF" fill-rule="nonzero">
            <g id="np_upload_2225491_FFFFFF" transform="translate(696.000000, 398.000000)">
                <path d="M4.53316667,5.16666667 L6.1497,3.55013333 L6.1497,10.6836333 C6.1497,11.2500333 6.59956667,11.7005667 7.16663333,11.7005667 C7.73303333,11.7005667 8.18356667,11.2507 8.18356667,10.6836333 L8.18356667,3.5333 L9.8001,5.14983333 C9.99996667,5.3497 10.2499667,5.44996667 10.5169,5.44996667 C10.7838333,5.44996667 11.0338333,5.34970667 11.2337,5.14983333 C11.6334333,4.7501 11.6334333,4.11663333 11.2337,3.71623333 L7.88336667,0.383566667 C7.48363333,-0.0161666667 6.85016667,-0.0161666667 6.44976667,0.383566667 L3.1001,3.73323333 C2.70036667,4.13296667 2.70036667,4.76643333 3.1001,5.16683333 C3.49983333,5.56656667 4.1333,5.56656667 4.53305,5.16683333 L4.53316667,5.16666667 Z" id="Path"></path>
                <path d="M13.1998333,10.1335 C12.6334333,10.1335 12.1829,10.5833667 12.1829,11.1504333 L12.1829,13.9004333 L2.1334,13.8997823 L2.1334,11.1497823 C2.1334,10.5833823 1.68353333,10.132849 1.11646667,10.132849 C0.550066667,10.132849 0.0995333333,10.5827157 0.0995333333,11.1497823 L0.0995333333,14.9167823 C0.0995333333,15.4831823 0.5494,15.9337157 1.11646667,15.9337157 L13.1998,15.9337157 C13.7662,15.9337157 14.2167333,15.483849 14.2167333,14.9167823 L14.2167333,11.1497823 C14.2167333,10.5833823 13.7668667,10.133499 13.1998,10.133499 L13.1998333,10.1335 Z" id="Path"></path>
            </g>
        </g>
    </g>
</svg>