<svg version="1.0" xmlns="http://www.w3.org/2000/svg" width="341.333" height="341.333" viewBox="0 0 256 256"><path d="M11.6 30.6c-3.9 3.8-3.1 4.7 43.9 50.9l45.5 44.7v48.2c0 42 .2 48.4 1.6 50.4.8 1.2 2.4 2.2 3.6 2.2 2.4 0 45.7-24.4 47.6-26.8.9-1.2 1.2-10.3 1.2-37.8v-36.1l45.5-44.8c47-46.2 47.8-47.1 43.9-50.9C243 29.2 231.1 29 128 29c-103.1 0-115 .2-116.4 1.6zM227 39.8c0 .4-18.7 19.1-41.5 41.5L144 122.2v36.1l-.1 36.2-15 8.5c-8.3 4.7-15.5 8.6-16 8.8-.5.2-.9-17.4-.9-44.6v-45L70.5 81.3C47.7 58.9 29 40.2 29 39.8c0-.5 44.5-.8 99-.8s99 .3 99 .8z" fill="var(--main-bg-color)"/></svg>