<svg width="32" height="32" xmlns="http://www.w3.org/2000/svg"><g id="Page-1" stroke="none" stroke-width="1" fill="none" fill-rule="evenodd"><g id="Scenario-Page-Input-data" transform="translate(-189 -919)" stroke="#FFF"><g id="Group-28" transform="translate(190 920)"><circle id="Oval-9" stroke-width="1.5" cx="15" cy="15" r="15"/><g id="np_upload_1859299_FFFFFF" transform="rotate(180 11 11)" fill="#FFF" fill-rule="nonzero" stroke-linecap="square" stroke-width=".5"><path d="M1.881 7.493a.44.44 0 0 1 .619 0l4.066 4.027V3.033c0-.24.195-.433.437-.433s.438.193.438.433v8.487l4.066-4.027a.44.44 0 0 1 .615.003c.17.168.17.44.004.61l-4.813 4.767h0a.44.44 0 0 1-.619 0L1.881 8.105h0a.432.432 0 0 1 0-.613h0zM14 .433A.432.432 0 0 0 13.563 0H.437A.435.435 0 0 0 0 .434c0 .239.195.433.437.433h13.126A.431.431 0 0 0 14 .434h0z" id="Shape"/></g></g></g></g></svg>