<svg width="22" height="23" xmlns="http://www.w3.org/2000/svg"><g id="Page-1" stroke="none" stroke-width="1" fill="none" fill-rule="evenodd"><g id="Home-Page" transform="translate(-19 -258)" fill="#FFF" fill-rule="nonzero" stroke="#FFF" stroke-width=".5"><g id="noun_323230_ffffff" transform="translate(20 259)"><path d="M10 12.111c-5.6 0-10 2.2-10 5v3.333A.55.55 0 0 0 .556 21h18.888a.55.55 0 0 0 .556-.556v-3.333c0-2.8-4.4-5-10-5zm8.889 7.778H1.11V17.11c0-1.889 3.578-3.889 8.889-3.889s8.889 2 8.889 3.89v2.777zM15 5c0-2.756-2.244-5-5-5S5 2.244 5 5s2.244 5 5 5 5-2.244 5-5zM6.111 5A3.908 3.908 0 0 1 10 1.111 3.908 3.908 0 0 1 13.889 5 3.908 3.908 0 0 1 10 8.889 3.908 3.908 0 0 1 6.111 5z" id="Shape"/></g></g></g></svg>