<svg version="1.1" id="Layer_1" xmlns="http://www.w3.org/2000/svg" xmlns:xlink="http://www.w3.org/1999/xlink" x="0" y="0" viewBox="0 0 200 200" xml:space="preserve"><circle cx="100" cy="100" r="98.5" fill-rule="evenodd" clip-rule="evenodd" fill="#e6e7e8"/><defs><path id="SVGID_1_" d="M36.5 39.4h127.1v121.3H36.5z"/></defs><clipPath id="SVGID_2_"><use xlink:href="#SVGID_1_" overflow="visible"/></clipPath><path d="M100.5 144.2c-15.6 0-30.2-8.2-38.6-19.8 0-11.7 25.9-18.7 38.6-18.7s37.4 7 37.4 18.7c-8.4 11.5-21.6 19.8-37.4 19.8zm0-86.2c10.8 0 18.2 7 18.2 17.4s-7.4 18.7-18.2 18.7c-10.8 0-19.2-8.2-19.2-18.7S89.7 58 100.5 58zm0-18.6c-35 0-64 26.8-64 60.5 0 33.9 29.1 60.6 64 60.6 35.1 0 62.9-26.8 62.9-60.6s-27.8-60.5-62.9-60.5z" clip-path="url(#SVGID_2_)" fill-rule="evenodd" clip-rule="evenodd" fill="#fff"/></svg>